M48
; DRILL file {KiCad (5.1.6)-1} date 08/19/20 23:21:12
; FORMAT={-:-/ absolute / inch / decimal}
; #@! TF.CreationDate,2020-08-19T23:21:12-05:00
; #@! TF.GenerationSoftware,Kicad,Pcbnew,(5.1.6)-1
; #@! TF.FileFunction,Plated,1,2,PTH
FMAT,2
INCH
T1C0.0150
T2C0.0217
T3C0.0300
T4C0.0315
T5C0.0354
T6C0.0461
T7C0.0591
%
G90
G05
T1
X6.64Y-4.38
T2
X6.54Y-4.5
X6.54Y-4.55
X6.54Y-4.6
T3
X6.03Y-4.59
X6.03Y-4.89
X6.13Y-4.59
X6.13Y-4.89
X6.23Y-4.59
X6.23Y-4.89
X6.33Y-4.59
X6.33Y-4.89
T4
X6.74Y-4.56
X7.04Y-4.56
X6.57Y-4.05
X6.57Y-4.35
X7.02Y-4.05
X7.02Y-4.35
X6.87Y-4.05
X6.87Y-4.35
X6.42Y-4.05
X6.42Y-4.35
X6.92Y-4.8
X6.92Y-4.8984
X6.56Y-4.8
X6.56Y-4.8787
X6.27Y-4.05
X6.27Y-4.35
X6.72Y-4.05
X6.72Y-4.35
T5
X6.06Y-4.1031
X6.06Y-4.2016
X6.06Y-4.3
X5.81Y-2.85
X5.81Y-2.95
X6.31Y-2.85
X6.31Y-2.95
T6
X5.49Y-4.8
T7
X5.49Y-4.0126
T0
M30
