%TF.GenerationSoftware,KiCad,Pcbnew,(5.1.6)-1*%
%TF.CreationDate,2020-08-19T23:20:37-05:00*%
%TF.ProjectId,555_badge,3535355f-6261-4646-9765-2e6b69636164,m01*%
%TF.SameCoordinates,Original*%
%TF.FileFunction,Copper,L2,Bot*%
%TF.FilePolarity,Positive*%
%FSLAX46Y46*%
G04 Gerber Fmt 4.6, Leading zero omitted, Abs format (unit mm)*
G04 Created by KiCad (PCBNEW (5.1.6)-1) date 2020-08-19 23:20:37*
%MOMM*%
%LPD*%
G01*
G04 APERTURE LIST*
%TA.AperFunction,NonConductor*%
%ADD10C,0.300000*%
%TD*%
%TA.AperFunction,ComponentPad*%
%ADD11C,1.524000*%
%TD*%
%TA.AperFunction,ComponentPad*%
%ADD12R,2.170000X2.170000*%
%TD*%
%TA.AperFunction,ComponentPad*%
%ADD13C,2.500000*%
%TD*%
%TA.AperFunction,ComponentPad*%
%ADD14R,1.600000X1.600000*%
%TD*%
%TA.AperFunction,ComponentPad*%
%ADD15C,1.600000*%
%TD*%
%TA.AperFunction,ComponentPad*%
%ADD16R,1.800000X1.800000*%
%TD*%
%TA.AperFunction,ComponentPad*%
%ADD17C,1.800000*%
%TD*%
%TA.AperFunction,ComponentPad*%
%ADD18O,1.500000X1.000000*%
%TD*%
%TA.AperFunction,ComponentPad*%
%ADD19R,1.500000X1.000000*%
%TD*%
%TA.AperFunction,ComponentPad*%
%ADD20O,1.600000X1.600000*%
%TD*%
%TA.AperFunction,ComponentPad*%
%ADD21R,1.900000X1.900000*%
%TD*%
%TA.AperFunction,ComponentPad*%
%ADD22C,1.900000*%
%TD*%
%TA.AperFunction,ViaPad*%
%ADD23C,0.762000*%
%TD*%
%TA.AperFunction,Conductor*%
%ADD24C,0.254000*%
%TD*%
G04 APERTURE END LIST*
D10*
X179363428Y-44366571D02*
X179363428Y-43366571D01*
X179363428Y-43509428D02*
X179292000Y-43438000D01*
X179149142Y-43366571D01*
X178934857Y-43366571D01*
X178792000Y-43438000D01*
X178720571Y-43580857D01*
X178720571Y-44366571D01*
X178720571Y-43580857D02*
X178649142Y-43438000D01*
X178506285Y-43366571D01*
X178292000Y-43366571D01*
X178149142Y-43438000D01*
X178077714Y-43580857D01*
X178077714Y-44366571D01*
X177077714Y-42866571D02*
X176934857Y-42866571D01*
X176792000Y-42938000D01*
X176720571Y-43009428D01*
X176649142Y-43152285D01*
X176577714Y-43438000D01*
X176577714Y-43795142D01*
X176649142Y-44080857D01*
X176720571Y-44223714D01*
X176792000Y-44295142D01*
X176934857Y-44366571D01*
X177077714Y-44366571D01*
X177220571Y-44295142D01*
X177292000Y-44223714D01*
X177363428Y-44080857D01*
X177434857Y-43795142D01*
X177434857Y-43438000D01*
X177363428Y-43152285D01*
X177292000Y-43009428D01*
X177220571Y-42938000D01*
X177077714Y-42866571D01*
X175149142Y-44366571D02*
X176006285Y-44366571D01*
X175577714Y-44366571D02*
X175577714Y-42866571D01*
X175720571Y-43080857D01*
X175863428Y-43223714D01*
X176006285Y-43295142D01*
D11*
%TO.P,U1,5*%
%TO.N,Net-(U1-Pad5)*%
X160782000Y-116586000D03*
%TO.P,U1,1*%
%TO.N,GND*%
X153162000Y-124206000D03*
%TO.P,U1,2*%
%TO.N,Net-(C1-Pad1)*%
X155702000Y-124206000D03*
%TO.P,U1,3*%
%TO.N,Net-(R3-Pad2)*%
X158242000Y-124206000D03*
%TO.P,U1,4*%
%TO.N,VCC*%
X160782000Y-124206000D03*
%TO.P,U1,6*%
%TO.N,Net-(C1-Pad1)*%
X158242000Y-116586000D03*
%TO.P,U1,7*%
%TO.N,Net-(R1-Pad2)*%
X155702000Y-116586000D03*
%TO.P,U1,8*%
%TO.N,VCC*%
X153162000Y-116586000D03*
%TD*%
D12*
%TO.P,BAT1,Neg*%
%TO.N,GND*%
X139446000Y-121920000D03*
D13*
%TO.P,BAT1,Pos*%
%TO.N,Net-(BAT1-PadPos)*%
X139446000Y-101920000D03*
%TD*%
D14*
%TO.P,C1,1*%
%TO.N,Net-(C1-Pad1)*%
X166624000Y-121920000D03*
D15*
%TO.P,C1,2*%
%TO.N,GND*%
X166624000Y-123920000D03*
%TD*%
D14*
%TO.P,C2,1*%
%TO.N,Net-(C2-Pad1)*%
X175768000Y-121920000D03*
D15*
%TO.P,C2,2*%
%TO.N,GND*%
X175768000Y-124420000D03*
%TD*%
D16*
%TO.P,D1,1*%
%TO.N,Net-(D1-Pad1)*%
X147574000Y-74930000D03*
D17*
%TO.P,D1,2*%
%TO.N,Net-(D1-Pad2)*%
X147574000Y-72390000D03*
%TD*%
%TO.P,D2,2*%
%TO.N,Net-(D2-Pad2)*%
X160274000Y-72390000D03*
D16*
%TO.P,D2,1*%
%TO.N,Net-(D1-Pad1)*%
X160274000Y-74930000D03*
%TD*%
D18*
%TO.P,Q1,2*%
%TO.N,Net-(Q1-Pad2)*%
X166116000Y-115570000D03*
%TO.P,Q1,3*%
%TO.N,Net-(D1-Pad1)*%
X166116000Y-114300000D03*
D19*
%TO.P,Q1,1*%
%TO.N,GND*%
X166116000Y-116840000D03*
%TD*%
D15*
%TO.P,R1,1*%
%TO.N,VCC*%
X159258000Y-102870000D03*
D20*
%TO.P,R1,2*%
%TO.N,Net-(R1-Pad2)*%
X159258000Y-110490000D03*
%TD*%
%TO.P,R2,2*%
%TO.N,Net-(C1-Pad1)*%
X163068000Y-102870000D03*
D15*
%TO.P,R2,1*%
%TO.N,Net-(R1-Pad2)*%
X163068000Y-110490000D03*
%TD*%
%TO.P,R3,1*%
%TO.N,Net-(C2-Pad1)*%
X174498000Y-110490000D03*
D20*
%TO.P,R3,2*%
%TO.N,Net-(R3-Pad2)*%
X174498000Y-102870000D03*
%TD*%
%TO.P,R4,2*%
%TO.N,GND*%
X178308000Y-110490000D03*
D15*
%TO.P,R4,1*%
%TO.N,Net-(C2-Pad1)*%
X178308000Y-102870000D03*
%TD*%
%TO.P,R5,1*%
%TO.N,Net-(Q1-Pad2)*%
X171196000Y-115824000D03*
D20*
%TO.P,R5,2*%
%TO.N,Net-(C2-Pad1)*%
X178816000Y-115824000D03*
%TD*%
%TO.P,R6,2*%
%TO.N,Net-(D1-Pad2)*%
X166878000Y-102870000D03*
D15*
%TO.P,R6,1*%
%TO.N,VCC*%
X166878000Y-110490000D03*
%TD*%
%TO.P,R7,1*%
%TO.N,VCC*%
X170688000Y-110490000D03*
D20*
%TO.P,R7,2*%
%TO.N,Net-(D2-Pad2)*%
X170688000Y-102870000D03*
%TD*%
D21*
%TO.P,S1,1*%
%TO.N,Net-(S1-Pad1)*%
X153924000Y-109220000D03*
D22*
%TO.P,S1,2*%
%TO.N,VCC*%
X153924000Y-106720000D03*
%TO.P,S1,3*%
%TO.N,Net-(BAT1-PadPos)*%
X153924000Y-104220000D03*
%TD*%
D23*
%TO.N,Net-(D1-Pad1)*%
X168656000Y-111252000D03*
%TD*%
D24*
%TO.N,Net-(C1-Pad1)*%
X155702000Y-124206000D02*
X155702000Y-121920000D01*
X155702000Y-121920000D02*
X158242000Y-119380000D01*
X158242000Y-119380000D02*
X158242000Y-116586000D01*
X158242000Y-116586000D02*
X158242000Y-115062000D01*
X158242000Y-115062000D02*
X161290000Y-112014000D01*
X161290000Y-112014000D02*
X161290000Y-104648000D01*
X161290000Y-104648000D02*
X163068000Y-102870000D01*
%TO.N,Net-(D1-Pad1)*%
X168656000Y-111252000D02*
X168656000Y-80010000D01*
X163576000Y-74930000D02*
X160274000Y-74930000D01*
X168656000Y-80010000D02*
X163576000Y-74930000D01*
X160274000Y-74930000D02*
X147574000Y-74930000D01*
%TO.N,Net-(D1-Pad2)*%
X166878000Y-102870000D02*
X166878000Y-81534000D01*
X166878000Y-81534000D02*
X163322000Y-77978000D01*
X163322000Y-77978000D02*
X145288000Y-77978000D01*
X145288000Y-77978000D02*
X143256000Y-75946000D01*
X143256000Y-75946000D02*
X143256000Y-73660000D01*
X144526000Y-72390000D02*
X147574000Y-72390000D01*
X143256000Y-73660000D02*
X144526000Y-72390000D01*
%TO.N,Net-(D2-Pad2)*%
X170688000Y-102870000D02*
X170688000Y-77470000D01*
X165608000Y-72390000D02*
X160274000Y-72390000D01*
X170688000Y-77470000D02*
X165608000Y-72390000D01*
%TO.N,Net-(R3-Pad2)*%
X172720000Y-111506000D02*
X172720000Y-104648000D01*
X171958000Y-112268000D02*
X172720000Y-111506000D01*
X158242000Y-122428000D02*
X162814000Y-117856000D01*
X158242000Y-124206000D02*
X158242000Y-122428000D01*
X162814000Y-117856000D02*
X162814000Y-113538000D01*
X172720000Y-104648000D02*
X174498000Y-102870000D01*
X162814000Y-113538000D02*
X164084000Y-112268000D01*
X164084000Y-112268000D02*
X171958000Y-112268000D01*
%TD*%
%TO.N,GND*%
G36*
X174078429Y-45718000D02*
G01*
X180200300Y-45718000D01*
X180200301Y-115427787D01*
X180195853Y-115405426D01*
X180087680Y-115144273D01*
X179930637Y-114909241D01*
X179730759Y-114709363D01*
X179495727Y-114552320D01*
X179234574Y-114444147D01*
X178957335Y-114389000D01*
X178674665Y-114389000D01*
X178397426Y-114444147D01*
X178136273Y-114552320D01*
X177901241Y-114709363D01*
X177701363Y-114909241D01*
X177544320Y-115144273D01*
X177436147Y-115405426D01*
X177381000Y-115682665D01*
X177381000Y-115965335D01*
X177436147Y-116242574D01*
X177544320Y-116503727D01*
X177701363Y-116738759D01*
X177901241Y-116938637D01*
X178136273Y-117095680D01*
X178397426Y-117203853D01*
X178674665Y-117259000D01*
X178957335Y-117259000D01*
X179234574Y-117203853D01*
X179495727Y-117095680D01*
X179730759Y-116938637D01*
X179930637Y-116738759D01*
X180087680Y-116503727D01*
X180195853Y-116242574D01*
X180200301Y-116220213D01*
X180200301Y-126352300D01*
X127647700Y-126352300D01*
X127647700Y-125171565D01*
X152376040Y-125171565D01*
X152443020Y-125411656D01*
X152692048Y-125528756D01*
X152959135Y-125595023D01*
X153234017Y-125607910D01*
X153506133Y-125566922D01*
X153765023Y-125473636D01*
X153880980Y-125411656D01*
X153947960Y-125171565D01*
X153162000Y-124385605D01*
X152376040Y-125171565D01*
X127647700Y-125171565D01*
X127647700Y-124278017D01*
X151760090Y-124278017D01*
X151801078Y-124550133D01*
X151894364Y-124809023D01*
X151956344Y-124924980D01*
X152196435Y-124991960D01*
X152982395Y-124206000D01*
X152196435Y-123420040D01*
X151956344Y-123487020D01*
X151839244Y-123736048D01*
X151772977Y-124003135D01*
X151760090Y-124278017D01*
X127647700Y-124278017D01*
X127647700Y-123005000D01*
X137722928Y-123005000D01*
X137735188Y-123129482D01*
X137771498Y-123249180D01*
X137830463Y-123359494D01*
X137909815Y-123456185D01*
X138006506Y-123535537D01*
X138116820Y-123594502D01*
X138236518Y-123630812D01*
X138361000Y-123643072D01*
X139160250Y-123640000D01*
X139319000Y-123481250D01*
X139319000Y-122047000D01*
X139573000Y-122047000D01*
X139573000Y-123481250D01*
X139731750Y-123640000D01*
X140531000Y-123643072D01*
X140655482Y-123630812D01*
X140775180Y-123594502D01*
X140885494Y-123535537D01*
X140982185Y-123456185D01*
X141061537Y-123359494D01*
X141120502Y-123249180D01*
X141123154Y-123240435D01*
X152376040Y-123240435D01*
X153162000Y-124026395D01*
X153947960Y-123240435D01*
X153880980Y-123000344D01*
X153631952Y-122883244D01*
X153364865Y-122816977D01*
X153089983Y-122804090D01*
X152817867Y-122845078D01*
X152558977Y-122938364D01*
X152443020Y-123000344D01*
X152376040Y-123240435D01*
X141123154Y-123240435D01*
X141156812Y-123129482D01*
X141169072Y-123005000D01*
X141166000Y-122205750D01*
X141007250Y-122047000D01*
X139573000Y-122047000D01*
X139319000Y-122047000D01*
X137884750Y-122047000D01*
X137726000Y-122205750D01*
X137722928Y-123005000D01*
X127647700Y-123005000D01*
X127647700Y-120835000D01*
X137722928Y-120835000D01*
X137726000Y-121634250D01*
X137884750Y-121793000D01*
X139319000Y-121793000D01*
X139319000Y-120358750D01*
X139573000Y-120358750D01*
X139573000Y-121793000D01*
X141007250Y-121793000D01*
X141166000Y-121634250D01*
X141169072Y-120835000D01*
X141156812Y-120710518D01*
X141120502Y-120590820D01*
X141061537Y-120480506D01*
X140982185Y-120383815D01*
X140885494Y-120304463D01*
X140775180Y-120245498D01*
X140655482Y-120209188D01*
X140531000Y-120196928D01*
X139731750Y-120200000D01*
X139573000Y-120358750D01*
X139319000Y-120358750D01*
X139160250Y-120200000D01*
X138361000Y-120196928D01*
X138236518Y-120209188D01*
X138116820Y-120245498D01*
X138006506Y-120304463D01*
X137909815Y-120383815D01*
X137830463Y-120480506D01*
X137771498Y-120590820D01*
X137735188Y-120710518D01*
X137722928Y-120835000D01*
X127647700Y-120835000D01*
X127647700Y-108270000D01*
X152335928Y-108270000D01*
X152335928Y-110170000D01*
X152348188Y-110294482D01*
X152384498Y-110414180D01*
X152443463Y-110524494D01*
X152522815Y-110621185D01*
X152619506Y-110700537D01*
X152729820Y-110759502D01*
X152849518Y-110795812D01*
X152974000Y-110808072D01*
X154874000Y-110808072D01*
X154998482Y-110795812D01*
X155118180Y-110759502D01*
X155228494Y-110700537D01*
X155325185Y-110621185D01*
X155404537Y-110524494D01*
X155463502Y-110414180D01*
X155499812Y-110294482D01*
X155512072Y-110170000D01*
X155512072Y-108270000D01*
X155499812Y-108145518D01*
X155463502Y-108025820D01*
X155404537Y-107915506D01*
X155325185Y-107818815D01*
X155228494Y-107739463D01*
X155169979Y-107708186D01*
X155328609Y-107470779D01*
X155448089Y-107182327D01*
X155509000Y-106876109D01*
X155509000Y-106563891D01*
X155448089Y-106257673D01*
X155328609Y-105969221D01*
X155155150Y-105709621D01*
X154934379Y-105488850D01*
X154906168Y-105470000D01*
X154934379Y-105451150D01*
X155155150Y-105230379D01*
X155328609Y-104970779D01*
X155448089Y-104682327D01*
X155509000Y-104376109D01*
X155509000Y-104063891D01*
X155448089Y-103757673D01*
X155328609Y-103469221D01*
X155155150Y-103209621D01*
X154934379Y-102988850D01*
X154674779Y-102815391D01*
X154465403Y-102728665D01*
X157823000Y-102728665D01*
X157823000Y-103011335D01*
X157878147Y-103288574D01*
X157986320Y-103549727D01*
X158143363Y-103784759D01*
X158343241Y-103984637D01*
X158578273Y-104141680D01*
X158839426Y-104249853D01*
X159116665Y-104305000D01*
X159399335Y-104305000D01*
X159676574Y-104249853D01*
X159937727Y-104141680D01*
X160172759Y-103984637D01*
X160372637Y-103784759D01*
X160529680Y-103549727D01*
X160637853Y-103288574D01*
X160693000Y-103011335D01*
X160693000Y-102728665D01*
X160637853Y-102451426D01*
X160529680Y-102190273D01*
X160372637Y-101955241D01*
X160172759Y-101755363D01*
X159937727Y-101598320D01*
X159676574Y-101490147D01*
X159399335Y-101435000D01*
X159116665Y-101435000D01*
X158839426Y-101490147D01*
X158578273Y-101598320D01*
X158343241Y-101755363D01*
X158143363Y-101955241D01*
X157986320Y-102190273D01*
X157878147Y-102451426D01*
X157823000Y-102728665D01*
X154465403Y-102728665D01*
X154386327Y-102695911D01*
X154080109Y-102635000D01*
X153767891Y-102635000D01*
X153461673Y-102695911D01*
X153173221Y-102815391D01*
X152913621Y-102988850D01*
X152692850Y-103209621D01*
X152519391Y-103469221D01*
X152399911Y-103757673D01*
X152339000Y-104063891D01*
X152339000Y-104376109D01*
X152399911Y-104682327D01*
X152519391Y-104970779D01*
X152692850Y-105230379D01*
X152913621Y-105451150D01*
X152941832Y-105470000D01*
X152913621Y-105488850D01*
X152692850Y-105709621D01*
X152519391Y-105969221D01*
X152399911Y-106257673D01*
X152339000Y-106563891D01*
X152339000Y-106876109D01*
X152399911Y-107182327D01*
X152519391Y-107470779D01*
X152678021Y-107708186D01*
X152619506Y-107739463D01*
X152522815Y-107818815D01*
X152443463Y-107915506D01*
X152384498Y-108025820D01*
X152348188Y-108145518D01*
X152335928Y-108270000D01*
X127647700Y-108270000D01*
X127647700Y-101734344D01*
X137561000Y-101734344D01*
X137561000Y-102105656D01*
X137633439Y-102469834D01*
X137775534Y-102812882D01*
X137981825Y-103121618D01*
X138244382Y-103384175D01*
X138553118Y-103590466D01*
X138896166Y-103732561D01*
X139260344Y-103805000D01*
X139631656Y-103805000D01*
X139995834Y-103732561D01*
X140338882Y-103590466D01*
X140647618Y-103384175D01*
X140910175Y-103121618D01*
X141116466Y-102812882D01*
X141258561Y-102469834D01*
X141331000Y-102105656D01*
X141331000Y-101734344D01*
X141258561Y-101370166D01*
X141116466Y-101027118D01*
X140910175Y-100718382D01*
X140647618Y-100455825D01*
X140338882Y-100249534D01*
X139995834Y-100107439D01*
X139631656Y-100035000D01*
X139260344Y-100035000D01*
X138896166Y-100107439D01*
X138553118Y-100249534D01*
X138244382Y-100455825D01*
X137981825Y-100718382D01*
X137775534Y-101027118D01*
X137633439Y-101370166D01*
X137561000Y-101734344D01*
X127647700Y-101734344D01*
X127647700Y-73660000D01*
X142490314Y-73660000D01*
X142494001Y-73697433D01*
X142494000Y-75908576D01*
X142490314Y-75946000D01*
X142494000Y-75983423D01*
X142494000Y-75983425D01*
X142505026Y-76095377D01*
X142548598Y-76239014D01*
X142548599Y-76239015D01*
X142619355Y-76371392D01*
X142658838Y-76419502D01*
X142714578Y-76487422D01*
X142743654Y-76511284D01*
X144722720Y-78490351D01*
X144746578Y-78519422D01*
X144775648Y-78543279D01*
X144862607Y-78614645D01*
X144933364Y-78652465D01*
X144994985Y-78685402D01*
X145138622Y-78728974D01*
X145250574Y-78740000D01*
X145250577Y-78740000D01*
X145288000Y-78743686D01*
X145325423Y-78740000D01*
X163006370Y-78740000D01*
X166116001Y-81849632D01*
X166116000Y-101653293D01*
X165963241Y-101755363D01*
X165763363Y-101955241D01*
X165606320Y-102190273D01*
X165498147Y-102451426D01*
X165443000Y-102728665D01*
X165443000Y-103011335D01*
X165498147Y-103288574D01*
X165606320Y-103549727D01*
X165763363Y-103784759D01*
X165963241Y-103984637D01*
X166198273Y-104141680D01*
X166459426Y-104249853D01*
X166736665Y-104305000D01*
X167019335Y-104305000D01*
X167296574Y-104249853D01*
X167557727Y-104141680D01*
X167792759Y-103984637D01*
X167894000Y-103883396D01*
X167894000Y-109476604D01*
X167792759Y-109375363D01*
X167557727Y-109218320D01*
X167296574Y-109110147D01*
X167019335Y-109055000D01*
X166736665Y-109055000D01*
X166459426Y-109110147D01*
X166198273Y-109218320D01*
X165963241Y-109375363D01*
X165763363Y-109575241D01*
X165606320Y-109810273D01*
X165498147Y-110071426D01*
X165443000Y-110348665D01*
X165443000Y-110631335D01*
X165498147Y-110908574D01*
X165606320Y-111169727D01*
X165763363Y-111404759D01*
X165864604Y-111506000D01*
X164121422Y-111506000D01*
X164084985Y-111502411D01*
X164182637Y-111404759D01*
X164339680Y-111169727D01*
X164447853Y-110908574D01*
X164503000Y-110631335D01*
X164503000Y-110348665D01*
X164447853Y-110071426D01*
X164339680Y-109810273D01*
X164182637Y-109575241D01*
X163982759Y-109375363D01*
X163747727Y-109218320D01*
X163486574Y-109110147D01*
X163209335Y-109055000D01*
X162926665Y-109055000D01*
X162649426Y-109110147D01*
X162388273Y-109218320D01*
X162153241Y-109375363D01*
X162052000Y-109476604D01*
X162052000Y-104963630D01*
X162746473Y-104269157D01*
X162926665Y-104305000D01*
X163209335Y-104305000D01*
X163486574Y-104249853D01*
X163747727Y-104141680D01*
X163982759Y-103984637D01*
X164182637Y-103784759D01*
X164339680Y-103549727D01*
X164447853Y-103288574D01*
X164503000Y-103011335D01*
X164503000Y-102728665D01*
X164447853Y-102451426D01*
X164339680Y-102190273D01*
X164182637Y-101955241D01*
X163982759Y-101755363D01*
X163747727Y-101598320D01*
X163486574Y-101490147D01*
X163209335Y-101435000D01*
X162926665Y-101435000D01*
X162649426Y-101490147D01*
X162388273Y-101598320D01*
X162153241Y-101755363D01*
X161953363Y-101955241D01*
X161796320Y-102190273D01*
X161688147Y-102451426D01*
X161633000Y-102728665D01*
X161633000Y-103011335D01*
X161668843Y-103191527D01*
X160777649Y-104082721D01*
X160748579Y-104106578D01*
X160724722Y-104135648D01*
X160724721Y-104135649D01*
X160653355Y-104222608D01*
X160582599Y-104354985D01*
X160539027Y-104498622D01*
X160524314Y-104648000D01*
X160528001Y-104685433D01*
X160528000Y-109807759D01*
X160372637Y-109575241D01*
X160172759Y-109375363D01*
X159937727Y-109218320D01*
X159676574Y-109110147D01*
X159399335Y-109055000D01*
X159116665Y-109055000D01*
X158839426Y-109110147D01*
X158578273Y-109218320D01*
X158343241Y-109375363D01*
X158143363Y-109575241D01*
X157986320Y-109810273D01*
X157878147Y-110071426D01*
X157823000Y-110348665D01*
X157823000Y-110631335D01*
X157878147Y-110908574D01*
X157986320Y-111169727D01*
X158143363Y-111404759D01*
X158343241Y-111604637D01*
X158578273Y-111761680D01*
X158839426Y-111869853D01*
X159116665Y-111925000D01*
X159399335Y-111925000D01*
X159676574Y-111869853D01*
X159937727Y-111761680D01*
X160172759Y-111604637D01*
X160372637Y-111404759D01*
X160528000Y-111172241D01*
X160528000Y-111698369D01*
X157729649Y-114496721D01*
X157700579Y-114520578D01*
X157676722Y-114549648D01*
X157676721Y-114549649D01*
X157605355Y-114636608D01*
X157534599Y-114768985D01*
X157491027Y-114912622D01*
X157476314Y-115062000D01*
X157480001Y-115099433D01*
X157480001Y-115414995D01*
X157351465Y-115500880D01*
X157156880Y-115695465D01*
X157003995Y-115924273D01*
X156972000Y-116001515D01*
X156940005Y-115924273D01*
X156787120Y-115695465D01*
X156592535Y-115500880D01*
X156363727Y-115347995D01*
X156109490Y-115242686D01*
X155839592Y-115189000D01*
X155564408Y-115189000D01*
X155294510Y-115242686D01*
X155040273Y-115347995D01*
X154811465Y-115500880D01*
X154616880Y-115695465D01*
X154463995Y-115924273D01*
X154432000Y-116001515D01*
X154400005Y-115924273D01*
X154247120Y-115695465D01*
X154052535Y-115500880D01*
X153823727Y-115347995D01*
X153569490Y-115242686D01*
X153299592Y-115189000D01*
X153024408Y-115189000D01*
X152754510Y-115242686D01*
X152500273Y-115347995D01*
X152271465Y-115500880D01*
X152076880Y-115695465D01*
X151923995Y-115924273D01*
X151818686Y-116178510D01*
X151765000Y-116448408D01*
X151765000Y-116723592D01*
X151818686Y-116993490D01*
X151923995Y-117247727D01*
X152076880Y-117476535D01*
X152271465Y-117671120D01*
X152500273Y-117824005D01*
X152754510Y-117929314D01*
X153024408Y-117983000D01*
X153299592Y-117983000D01*
X153569490Y-117929314D01*
X153823727Y-117824005D01*
X154052535Y-117671120D01*
X154247120Y-117476535D01*
X154400005Y-117247727D01*
X154432000Y-117170485D01*
X154463995Y-117247727D01*
X154616880Y-117476535D01*
X154811465Y-117671120D01*
X155040273Y-117824005D01*
X155294510Y-117929314D01*
X155564408Y-117983000D01*
X155839592Y-117983000D01*
X156109490Y-117929314D01*
X156363727Y-117824005D01*
X156592535Y-117671120D01*
X156787120Y-117476535D01*
X156940005Y-117247727D01*
X156972000Y-117170485D01*
X157003995Y-117247727D01*
X157156880Y-117476535D01*
X157351465Y-117671120D01*
X157480001Y-117757005D01*
X157480000Y-119064369D01*
X155189649Y-121354721D01*
X155160579Y-121378578D01*
X155136722Y-121407648D01*
X155136721Y-121407649D01*
X155065355Y-121494608D01*
X154994599Y-121626985D01*
X154951027Y-121770622D01*
X154936314Y-121920000D01*
X154940001Y-121957433D01*
X154940001Y-123034995D01*
X154811465Y-123120880D01*
X154616880Y-123315465D01*
X154463995Y-123544273D01*
X154434308Y-123615943D01*
X154429636Y-123602977D01*
X154367656Y-123487020D01*
X154127565Y-123420040D01*
X153341605Y-124206000D01*
X154127565Y-124991960D01*
X154367656Y-124924980D01*
X154431485Y-124789240D01*
X154463995Y-124867727D01*
X154616880Y-125096535D01*
X154811465Y-125291120D01*
X155040273Y-125444005D01*
X155294510Y-125549314D01*
X155564408Y-125603000D01*
X155839592Y-125603000D01*
X156109490Y-125549314D01*
X156363727Y-125444005D01*
X156592535Y-125291120D01*
X156787120Y-125096535D01*
X156940005Y-124867727D01*
X156972000Y-124790485D01*
X157003995Y-124867727D01*
X157156880Y-125096535D01*
X157351465Y-125291120D01*
X157580273Y-125444005D01*
X157834510Y-125549314D01*
X158104408Y-125603000D01*
X158379592Y-125603000D01*
X158649490Y-125549314D01*
X158903727Y-125444005D01*
X159132535Y-125291120D01*
X159327120Y-125096535D01*
X159480005Y-124867727D01*
X159512000Y-124790485D01*
X159543995Y-124867727D01*
X159696880Y-125096535D01*
X159891465Y-125291120D01*
X160120273Y-125444005D01*
X160374510Y-125549314D01*
X160644408Y-125603000D01*
X160919592Y-125603000D01*
X161189490Y-125549314D01*
X161443727Y-125444005D01*
X161490575Y-125412702D01*
X174954903Y-125412702D01*
X175026486Y-125656671D01*
X175281996Y-125777571D01*
X175556184Y-125846300D01*
X175838512Y-125860217D01*
X176118130Y-125818787D01*
X176384292Y-125723603D01*
X176509514Y-125656671D01*
X176581097Y-125412702D01*
X175768000Y-124599605D01*
X174954903Y-125412702D01*
X161490575Y-125412702D01*
X161672535Y-125291120D01*
X161867120Y-125096535D01*
X161989953Y-124912702D01*
X165810903Y-124912702D01*
X165882486Y-125156671D01*
X166137996Y-125277571D01*
X166412184Y-125346300D01*
X166694512Y-125360217D01*
X166974130Y-125318787D01*
X167240292Y-125223603D01*
X167365514Y-125156671D01*
X167437097Y-124912702D01*
X166624000Y-124099605D01*
X165810903Y-124912702D01*
X161989953Y-124912702D01*
X162020005Y-124867727D01*
X162125314Y-124613490D01*
X162179000Y-124343592D01*
X162179000Y-124068408D01*
X162163506Y-123990512D01*
X165183783Y-123990512D01*
X165225213Y-124270130D01*
X165320397Y-124536292D01*
X165387329Y-124661514D01*
X165631298Y-124733097D01*
X166444395Y-123920000D01*
X166430253Y-123905858D01*
X166609858Y-123726253D01*
X166624000Y-123740395D01*
X166638143Y-123726253D01*
X166817748Y-123905858D01*
X166803605Y-123920000D01*
X167616702Y-124733097D01*
X167860671Y-124661514D01*
X167941584Y-124490512D01*
X174327783Y-124490512D01*
X174369213Y-124770130D01*
X174464397Y-125036292D01*
X174531329Y-125161514D01*
X174775298Y-125233097D01*
X175588395Y-124420000D01*
X175947605Y-124420000D01*
X176760702Y-125233097D01*
X177004671Y-125161514D01*
X177125571Y-124906004D01*
X177194300Y-124631816D01*
X177208217Y-124349488D01*
X177166787Y-124069870D01*
X177071603Y-123803708D01*
X177004671Y-123678486D01*
X176760702Y-123606903D01*
X175947605Y-124420000D01*
X175588395Y-124420000D01*
X174775298Y-123606903D01*
X174531329Y-123678486D01*
X174410429Y-123933996D01*
X174341700Y-124208184D01*
X174327783Y-124490512D01*
X167941584Y-124490512D01*
X167981571Y-124406004D01*
X168050300Y-124131816D01*
X168064217Y-123849488D01*
X168022787Y-123569870D01*
X167927603Y-123303708D01*
X167862384Y-123181691D01*
X167875185Y-123171185D01*
X167954537Y-123074494D01*
X168013502Y-122964180D01*
X168049812Y-122844482D01*
X168062072Y-122720000D01*
X168062072Y-121120000D01*
X174329928Y-121120000D01*
X174329928Y-122720000D01*
X174342188Y-122844482D01*
X174378498Y-122964180D01*
X174437463Y-123074494D01*
X174516815Y-123171185D01*
X174613506Y-123250537D01*
X174723820Y-123309502D01*
X174843518Y-123345812D01*
X174968000Y-123358072D01*
X174975215Y-123358072D01*
X174954903Y-123427298D01*
X175768000Y-124240395D01*
X176581097Y-123427298D01*
X176560785Y-123358072D01*
X176568000Y-123358072D01*
X176692482Y-123345812D01*
X176812180Y-123309502D01*
X176922494Y-123250537D01*
X177019185Y-123171185D01*
X177098537Y-123074494D01*
X177157502Y-122964180D01*
X177193812Y-122844482D01*
X177206072Y-122720000D01*
X177206072Y-121120000D01*
X177193812Y-120995518D01*
X177157502Y-120875820D01*
X177098537Y-120765506D01*
X177019185Y-120668815D01*
X176922494Y-120589463D01*
X176812180Y-120530498D01*
X176692482Y-120494188D01*
X176568000Y-120481928D01*
X174968000Y-120481928D01*
X174843518Y-120494188D01*
X174723820Y-120530498D01*
X174613506Y-120589463D01*
X174516815Y-120668815D01*
X174437463Y-120765506D01*
X174378498Y-120875820D01*
X174342188Y-120995518D01*
X174329928Y-121120000D01*
X168062072Y-121120000D01*
X168049812Y-120995518D01*
X168013502Y-120875820D01*
X167954537Y-120765506D01*
X167875185Y-120668815D01*
X167778494Y-120589463D01*
X167668180Y-120530498D01*
X167548482Y-120494188D01*
X167424000Y-120481928D01*
X165824000Y-120481928D01*
X165699518Y-120494188D01*
X165579820Y-120530498D01*
X165469506Y-120589463D01*
X165372815Y-120668815D01*
X165293463Y-120765506D01*
X165234498Y-120875820D01*
X165198188Y-120995518D01*
X165185928Y-121120000D01*
X165185928Y-122720000D01*
X165198188Y-122844482D01*
X165234498Y-122964180D01*
X165293463Y-123074494D01*
X165372815Y-123171185D01*
X165385758Y-123181807D01*
X165266429Y-123433996D01*
X165197700Y-123708184D01*
X165183783Y-123990512D01*
X162163506Y-123990512D01*
X162125314Y-123798510D01*
X162020005Y-123544273D01*
X161867120Y-123315465D01*
X161672535Y-123120880D01*
X161443727Y-122967995D01*
X161189490Y-122862686D01*
X160919592Y-122809000D01*
X160644408Y-122809000D01*
X160374510Y-122862686D01*
X160120273Y-122967995D01*
X159891465Y-123120880D01*
X159696880Y-123315465D01*
X159543995Y-123544273D01*
X159512000Y-123621515D01*
X159480005Y-123544273D01*
X159327120Y-123315465D01*
X159132535Y-123120880D01*
X159004000Y-123034995D01*
X159004000Y-122743630D01*
X163326353Y-118421278D01*
X163355422Y-118397422D01*
X163450645Y-118281392D01*
X163521402Y-118149015D01*
X163564974Y-118005378D01*
X163576000Y-117893426D01*
X163576000Y-117893424D01*
X163579686Y-117856001D01*
X163576000Y-117818578D01*
X163576000Y-117340000D01*
X164727928Y-117340000D01*
X164740188Y-117464482D01*
X164776498Y-117584180D01*
X164835463Y-117694494D01*
X164914815Y-117791185D01*
X165011506Y-117870537D01*
X165121820Y-117929502D01*
X165241518Y-117965812D01*
X165366000Y-117978072D01*
X165830250Y-117975000D01*
X165989000Y-117816250D01*
X165989000Y-116967000D01*
X166243000Y-116967000D01*
X166243000Y-117816250D01*
X166401750Y-117975000D01*
X166866000Y-117978072D01*
X166990482Y-117965812D01*
X167110180Y-117929502D01*
X167220494Y-117870537D01*
X167317185Y-117791185D01*
X167396537Y-117694494D01*
X167455502Y-117584180D01*
X167491812Y-117464482D01*
X167504072Y-117340000D01*
X167501000Y-117125750D01*
X167342250Y-116967000D01*
X166243000Y-116967000D01*
X165989000Y-116967000D01*
X164889750Y-116967000D01*
X164731000Y-117125750D01*
X164727928Y-117340000D01*
X163576000Y-117340000D01*
X163576000Y-114300000D01*
X164725509Y-114300000D01*
X164747423Y-114522499D01*
X164812324Y-114736447D01*
X164917716Y-114933623D01*
X164918846Y-114935000D01*
X164917716Y-114936377D01*
X164812324Y-115133553D01*
X164747423Y-115347501D01*
X164725509Y-115570000D01*
X164747423Y-115792499D01*
X164812324Y-116006447D01*
X164818297Y-116017621D01*
X164776498Y-116095820D01*
X164740188Y-116215518D01*
X164727928Y-116340000D01*
X164731000Y-116554250D01*
X164889750Y-116713000D01*
X165989000Y-116713000D01*
X165989000Y-116705000D01*
X166243000Y-116705000D01*
X166243000Y-116713000D01*
X167342250Y-116713000D01*
X167501000Y-116554250D01*
X167504072Y-116340000D01*
X167491812Y-116215518D01*
X167455502Y-116095820D01*
X167413703Y-116017621D01*
X167419676Y-116006447D01*
X167484577Y-115792499D01*
X167495394Y-115682665D01*
X169761000Y-115682665D01*
X169761000Y-115965335D01*
X169816147Y-116242574D01*
X169924320Y-116503727D01*
X170081363Y-116738759D01*
X170281241Y-116938637D01*
X170516273Y-117095680D01*
X170777426Y-117203853D01*
X171054665Y-117259000D01*
X171337335Y-117259000D01*
X171614574Y-117203853D01*
X171875727Y-117095680D01*
X172110759Y-116938637D01*
X172310637Y-116738759D01*
X172467680Y-116503727D01*
X172575853Y-116242574D01*
X172631000Y-115965335D01*
X172631000Y-115682665D01*
X172575853Y-115405426D01*
X172467680Y-115144273D01*
X172310637Y-114909241D01*
X172110759Y-114709363D01*
X171875727Y-114552320D01*
X171614574Y-114444147D01*
X171337335Y-114389000D01*
X171054665Y-114389000D01*
X170777426Y-114444147D01*
X170516273Y-114552320D01*
X170281241Y-114709363D01*
X170081363Y-114909241D01*
X169924320Y-115144273D01*
X169816147Y-115405426D01*
X169761000Y-115682665D01*
X167495394Y-115682665D01*
X167506491Y-115570000D01*
X167484577Y-115347501D01*
X167419676Y-115133553D01*
X167314284Y-114936377D01*
X167313154Y-114935000D01*
X167314284Y-114933623D01*
X167419676Y-114736447D01*
X167484577Y-114522499D01*
X167506491Y-114300000D01*
X167484577Y-114077501D01*
X167419676Y-113863553D01*
X167314284Y-113666377D01*
X167172449Y-113493551D01*
X166999623Y-113351716D01*
X166802447Y-113246324D01*
X166588499Y-113181423D01*
X166421752Y-113165000D01*
X165810248Y-113165000D01*
X165643501Y-113181423D01*
X165429553Y-113246324D01*
X165232377Y-113351716D01*
X165059551Y-113493551D01*
X164917716Y-113666377D01*
X164812324Y-113863553D01*
X164747423Y-114077501D01*
X164725509Y-114300000D01*
X163576000Y-114300000D01*
X163576000Y-113853630D01*
X164399631Y-113030000D01*
X171920577Y-113030000D01*
X171958000Y-113033686D01*
X171995423Y-113030000D01*
X171995426Y-113030000D01*
X172107378Y-113018974D01*
X172251015Y-112975402D01*
X172383392Y-112904645D01*
X172499422Y-112809422D01*
X172523284Y-112780347D01*
X173232353Y-112071278D01*
X173261422Y-112047422D01*
X173288851Y-112014000D01*
X173356645Y-111931393D01*
X173427401Y-111799016D01*
X173427402Y-111799015D01*
X173470974Y-111655378D01*
X173482000Y-111543426D01*
X173482000Y-111543423D01*
X173485589Y-111506985D01*
X173583241Y-111604637D01*
X173818273Y-111761680D01*
X174079426Y-111869853D01*
X174356665Y-111925000D01*
X174639335Y-111925000D01*
X174916574Y-111869853D01*
X175177727Y-111761680D01*
X175412759Y-111604637D01*
X175612637Y-111404759D01*
X175769680Y-111169727D01*
X175877853Y-110908574D01*
X175891684Y-110839040D01*
X176916091Y-110839040D01*
X177010930Y-111103881D01*
X177155615Y-111345131D01*
X177344586Y-111553519D01*
X177570580Y-111721037D01*
X177824913Y-111841246D01*
X177958961Y-111881904D01*
X178181000Y-111759915D01*
X178181000Y-110617000D01*
X178435000Y-110617000D01*
X178435000Y-111759915D01*
X178657039Y-111881904D01*
X178791087Y-111841246D01*
X179045420Y-111721037D01*
X179271414Y-111553519D01*
X179460385Y-111345131D01*
X179605070Y-111103881D01*
X179699909Y-110839040D01*
X179578624Y-110617000D01*
X178435000Y-110617000D01*
X178181000Y-110617000D01*
X177037376Y-110617000D01*
X176916091Y-110839040D01*
X175891684Y-110839040D01*
X175933000Y-110631335D01*
X175933000Y-110348665D01*
X175891685Y-110140960D01*
X176916091Y-110140960D01*
X177037376Y-110363000D01*
X178181000Y-110363000D01*
X178181000Y-109220085D01*
X178435000Y-109220085D01*
X178435000Y-110363000D01*
X179578624Y-110363000D01*
X179699909Y-110140960D01*
X179605070Y-109876119D01*
X179460385Y-109634869D01*
X179271414Y-109426481D01*
X179045420Y-109258963D01*
X178791087Y-109138754D01*
X178657039Y-109098096D01*
X178435000Y-109220085D01*
X178181000Y-109220085D01*
X177958961Y-109098096D01*
X177824913Y-109138754D01*
X177570580Y-109258963D01*
X177344586Y-109426481D01*
X177155615Y-109634869D01*
X177010930Y-109876119D01*
X176916091Y-110140960D01*
X175891685Y-110140960D01*
X175877853Y-110071426D01*
X175769680Y-109810273D01*
X175612637Y-109575241D01*
X175412759Y-109375363D01*
X175177727Y-109218320D01*
X174916574Y-109110147D01*
X174639335Y-109055000D01*
X174356665Y-109055000D01*
X174079426Y-109110147D01*
X173818273Y-109218320D01*
X173583241Y-109375363D01*
X173482000Y-109476604D01*
X173482000Y-104963630D01*
X174176473Y-104269157D01*
X174356665Y-104305000D01*
X174639335Y-104305000D01*
X174916574Y-104249853D01*
X175177727Y-104141680D01*
X175412759Y-103984637D01*
X175612637Y-103784759D01*
X175769680Y-103549727D01*
X175877853Y-103288574D01*
X175933000Y-103011335D01*
X175933000Y-102728665D01*
X176873000Y-102728665D01*
X176873000Y-103011335D01*
X176928147Y-103288574D01*
X177036320Y-103549727D01*
X177193363Y-103784759D01*
X177393241Y-103984637D01*
X177628273Y-104141680D01*
X177889426Y-104249853D01*
X178166665Y-104305000D01*
X178449335Y-104305000D01*
X178726574Y-104249853D01*
X178987727Y-104141680D01*
X179222759Y-103984637D01*
X179422637Y-103784759D01*
X179579680Y-103549727D01*
X179687853Y-103288574D01*
X179743000Y-103011335D01*
X179743000Y-102728665D01*
X179687853Y-102451426D01*
X179579680Y-102190273D01*
X179422637Y-101955241D01*
X179222759Y-101755363D01*
X178987727Y-101598320D01*
X178726574Y-101490147D01*
X178449335Y-101435000D01*
X178166665Y-101435000D01*
X177889426Y-101490147D01*
X177628273Y-101598320D01*
X177393241Y-101755363D01*
X177193363Y-101955241D01*
X177036320Y-102190273D01*
X176928147Y-102451426D01*
X176873000Y-102728665D01*
X175933000Y-102728665D01*
X175877853Y-102451426D01*
X175769680Y-102190273D01*
X175612637Y-101955241D01*
X175412759Y-101755363D01*
X175177727Y-101598320D01*
X174916574Y-101490147D01*
X174639335Y-101435000D01*
X174356665Y-101435000D01*
X174079426Y-101490147D01*
X173818273Y-101598320D01*
X173583241Y-101755363D01*
X173383363Y-101955241D01*
X173226320Y-102190273D01*
X173118147Y-102451426D01*
X173063000Y-102728665D01*
X173063000Y-103011335D01*
X173098843Y-103191527D01*
X172207649Y-104082721D01*
X172178579Y-104106578D01*
X172154722Y-104135648D01*
X172154721Y-104135649D01*
X172083355Y-104222608D01*
X172012599Y-104354985D01*
X171969027Y-104498622D01*
X171954314Y-104648000D01*
X171958001Y-104685433D01*
X171958000Y-109807759D01*
X171802637Y-109575241D01*
X171602759Y-109375363D01*
X171367727Y-109218320D01*
X171106574Y-109110147D01*
X170829335Y-109055000D01*
X170546665Y-109055000D01*
X170269426Y-109110147D01*
X170008273Y-109218320D01*
X169773241Y-109375363D01*
X169573363Y-109575241D01*
X169418000Y-109807759D01*
X169418000Y-103552241D01*
X169573363Y-103784759D01*
X169773241Y-103984637D01*
X170008273Y-104141680D01*
X170269426Y-104249853D01*
X170546665Y-104305000D01*
X170829335Y-104305000D01*
X171106574Y-104249853D01*
X171367727Y-104141680D01*
X171602759Y-103984637D01*
X171802637Y-103784759D01*
X171959680Y-103549727D01*
X172067853Y-103288574D01*
X172123000Y-103011335D01*
X172123000Y-102728665D01*
X172067853Y-102451426D01*
X171959680Y-102190273D01*
X171802637Y-101955241D01*
X171602759Y-101755363D01*
X171450000Y-101653293D01*
X171450000Y-77507423D01*
X171453686Y-77470000D01*
X171450000Y-77432574D01*
X171438974Y-77320622D01*
X171395402Y-77176985D01*
X171362465Y-77115364D01*
X171324645Y-77044607D01*
X171253279Y-76957648D01*
X171229422Y-76928578D01*
X171200352Y-76904721D01*
X166173284Y-71877654D01*
X166149422Y-71848578D01*
X166033392Y-71753355D01*
X165901015Y-71682598D01*
X165757378Y-71639026D01*
X165645426Y-71628000D01*
X165645423Y-71628000D01*
X165608000Y-71624314D01*
X165570577Y-71628000D01*
X161610976Y-71628000D01*
X161466312Y-71411495D01*
X161252505Y-71197688D01*
X161001095Y-71029701D01*
X160721743Y-70913989D01*
X160425184Y-70855000D01*
X160122816Y-70855000D01*
X159826257Y-70913989D01*
X159546905Y-71029701D01*
X159295495Y-71197688D01*
X159081688Y-71411495D01*
X158913701Y-71662905D01*
X158797989Y-71942257D01*
X158739000Y-72238816D01*
X158739000Y-72541184D01*
X158797989Y-72837743D01*
X158913701Y-73117095D01*
X159081688Y-73368505D01*
X159148127Y-73434944D01*
X159129820Y-73440498D01*
X159019506Y-73499463D01*
X158922815Y-73578815D01*
X158843463Y-73675506D01*
X158784498Y-73785820D01*
X158748188Y-73905518D01*
X158735928Y-74030000D01*
X158735928Y-74168000D01*
X149112072Y-74168000D01*
X149112072Y-74030000D01*
X149099812Y-73905518D01*
X149063502Y-73785820D01*
X149004537Y-73675506D01*
X148925185Y-73578815D01*
X148828494Y-73499463D01*
X148718180Y-73440498D01*
X148699873Y-73434944D01*
X148766312Y-73368505D01*
X148934299Y-73117095D01*
X149050011Y-72837743D01*
X149109000Y-72541184D01*
X149109000Y-72238816D01*
X149050011Y-71942257D01*
X148934299Y-71662905D01*
X148766312Y-71411495D01*
X148552505Y-71197688D01*
X148301095Y-71029701D01*
X148021743Y-70913989D01*
X147725184Y-70855000D01*
X147422816Y-70855000D01*
X147126257Y-70913989D01*
X146846905Y-71029701D01*
X146595495Y-71197688D01*
X146381688Y-71411495D01*
X146237024Y-71628000D01*
X144563422Y-71628000D01*
X144525999Y-71624314D01*
X144488576Y-71628000D01*
X144488574Y-71628000D01*
X144376622Y-71639026D01*
X144232985Y-71682598D01*
X144100608Y-71753355D01*
X143984578Y-71848578D01*
X143960721Y-71877648D01*
X142743649Y-73094721D01*
X142714579Y-73118578D01*
X142690722Y-73147648D01*
X142690721Y-73147649D01*
X142619355Y-73234608D01*
X142548599Y-73366985D01*
X142505027Y-73510622D01*
X142490314Y-73660000D01*
X127647700Y-73660000D01*
X127647700Y-45801595D01*
X146294012Y-45801595D01*
X146294422Y-45860299D01*
X146294012Y-45919003D01*
X146294894Y-45928003D01*
X146333757Y-46297757D01*
X146345563Y-46355274D01*
X146356561Y-46412926D01*
X146359175Y-46421584D01*
X146469117Y-46776747D01*
X146491874Y-46830883D01*
X146513857Y-46885293D01*
X146518102Y-46893278D01*
X146694934Y-47220323D01*
X146727766Y-47268999D01*
X146759906Y-47318114D01*
X146765622Y-47325122D01*
X147002611Y-47611592D01*
X147044267Y-47652958D01*
X147085338Y-47694899D01*
X147092306Y-47700663D01*
X147380423Y-47935646D01*
X147429336Y-47968144D01*
X147477758Y-48001299D01*
X147485708Y-48005597D01*
X147485712Y-48005600D01*
X147485716Y-48005602D01*
X147813985Y-48180145D01*
X147868261Y-48202516D01*
X147922215Y-48225642D01*
X147930852Y-48228315D01*
X147930856Y-48228317D01*
X147930860Y-48228318D01*
X148286777Y-48335775D01*
X148344338Y-48347173D01*
X148401787Y-48359384D01*
X148410778Y-48360329D01*
X148410780Y-48360329D01*
X148780796Y-48396609D01*
X148780809Y-48396609D01*
X148812191Y-48399700D01*
X159035809Y-48399700D01*
X159069080Y-48396423D01*
X159093803Y-48396423D01*
X159102796Y-48395478D01*
X159472270Y-48354035D01*
X159529710Y-48341826D01*
X159587278Y-48330427D01*
X159595917Y-48327753D01*
X159950304Y-48215335D01*
X160004293Y-48192195D01*
X160058536Y-48169838D01*
X160066491Y-48165537D01*
X160392294Y-47986425D01*
X160440740Y-47953253D01*
X160489627Y-47920773D01*
X160496590Y-47915012D01*
X160496596Y-47915008D01*
X160496601Y-47915003D01*
X160781403Y-47676026D01*
X160822470Y-47634090D01*
X160864132Y-47592719D01*
X160869847Y-47585711D01*
X161102813Y-47295960D01*
X161134962Y-47246832D01*
X161167785Y-47198170D01*
X161172030Y-47190185D01*
X161344279Y-46860703D01*
X161366282Y-46806243D01*
X161389019Y-46752156D01*
X161391633Y-46743498D01*
X161496605Y-46386833D01*
X161507611Y-46329137D01*
X161519409Y-46271665D01*
X161520290Y-46262672D01*
X161520292Y-46262663D01*
X161520292Y-46262655D01*
X161553988Y-45892405D01*
X161553578Y-45833701D01*
X161553988Y-45774998D01*
X161553106Y-45765998D01*
X161514243Y-45396243D01*
X161502430Y-45338696D01*
X161491438Y-45281073D01*
X161488825Y-45272416D01*
X161378883Y-44917252D01*
X161356114Y-44863088D01*
X161334143Y-44808706D01*
X161329898Y-44800722D01*
X161153066Y-44473677D01*
X161120234Y-44425001D01*
X161088094Y-44375886D01*
X161082378Y-44368878D01*
X160845389Y-44082408D01*
X160803733Y-44041042D01*
X160762662Y-43999101D01*
X160755694Y-43993337D01*
X160467577Y-43758354D01*
X160418664Y-43725856D01*
X160370242Y-43692701D01*
X160362292Y-43688403D01*
X160362288Y-43688400D01*
X160362284Y-43688398D01*
X160034015Y-43513855D01*
X159979753Y-43491490D01*
X159925784Y-43468358D01*
X159917145Y-43465684D01*
X159561223Y-43358224D01*
X159503626Y-43346819D01*
X159446213Y-43334616D01*
X159437223Y-43333671D01*
X159437219Y-43333671D01*
X159067204Y-43297391D01*
X159067191Y-43297391D01*
X159035809Y-43294300D01*
X148812191Y-43294300D01*
X148778920Y-43297577D01*
X148754197Y-43297577D01*
X148745204Y-43298522D01*
X148375730Y-43339965D01*
X148318265Y-43352180D01*
X148260722Y-43363573D01*
X148252083Y-43366247D01*
X147897696Y-43478665D01*
X147843720Y-43501799D01*
X147789463Y-43524162D01*
X147781509Y-43528463D01*
X147455706Y-43707575D01*
X147407277Y-43740735D01*
X147358372Y-43773227D01*
X147351410Y-43778988D01*
X147351404Y-43778992D01*
X147351399Y-43778997D01*
X147066597Y-44017974D01*
X147025511Y-44059929D01*
X146983868Y-44101282D01*
X146978158Y-44108284D01*
X146978153Y-44108289D01*
X146978149Y-44108294D01*
X146745187Y-44398040D01*
X146713042Y-44447163D01*
X146680215Y-44495831D01*
X146675973Y-44503811D01*
X146675970Y-44503815D01*
X146675970Y-44503816D01*
X146503721Y-44833297D01*
X146481722Y-44887745D01*
X146458981Y-44941844D01*
X146456367Y-44950501D01*
X146351395Y-45307167D01*
X146340389Y-45364863D01*
X146328591Y-45422335D01*
X146327710Y-45431328D01*
X146327708Y-45431337D01*
X146327708Y-45431345D01*
X146294012Y-45801595D01*
X127647700Y-45801595D01*
X127647700Y-42049700D01*
X174078429Y-42049700D01*
X174078429Y-45718000D01*
G37*
X174078429Y-45718000D02*
X180200300Y-45718000D01*
X180200301Y-115427787D01*
X180195853Y-115405426D01*
X180087680Y-115144273D01*
X179930637Y-114909241D01*
X179730759Y-114709363D01*
X179495727Y-114552320D01*
X179234574Y-114444147D01*
X178957335Y-114389000D01*
X178674665Y-114389000D01*
X178397426Y-114444147D01*
X178136273Y-114552320D01*
X177901241Y-114709363D01*
X177701363Y-114909241D01*
X177544320Y-115144273D01*
X177436147Y-115405426D01*
X177381000Y-115682665D01*
X177381000Y-115965335D01*
X177436147Y-116242574D01*
X177544320Y-116503727D01*
X177701363Y-116738759D01*
X177901241Y-116938637D01*
X178136273Y-117095680D01*
X178397426Y-117203853D01*
X178674665Y-117259000D01*
X178957335Y-117259000D01*
X179234574Y-117203853D01*
X179495727Y-117095680D01*
X179730759Y-116938637D01*
X179930637Y-116738759D01*
X180087680Y-116503727D01*
X180195853Y-116242574D01*
X180200301Y-116220213D01*
X180200301Y-126352300D01*
X127647700Y-126352300D01*
X127647700Y-125171565D01*
X152376040Y-125171565D01*
X152443020Y-125411656D01*
X152692048Y-125528756D01*
X152959135Y-125595023D01*
X153234017Y-125607910D01*
X153506133Y-125566922D01*
X153765023Y-125473636D01*
X153880980Y-125411656D01*
X153947960Y-125171565D01*
X153162000Y-124385605D01*
X152376040Y-125171565D01*
X127647700Y-125171565D01*
X127647700Y-124278017D01*
X151760090Y-124278017D01*
X151801078Y-124550133D01*
X151894364Y-124809023D01*
X151956344Y-124924980D01*
X152196435Y-124991960D01*
X152982395Y-124206000D01*
X152196435Y-123420040D01*
X151956344Y-123487020D01*
X151839244Y-123736048D01*
X151772977Y-124003135D01*
X151760090Y-124278017D01*
X127647700Y-124278017D01*
X127647700Y-123005000D01*
X137722928Y-123005000D01*
X137735188Y-123129482D01*
X137771498Y-123249180D01*
X137830463Y-123359494D01*
X137909815Y-123456185D01*
X138006506Y-123535537D01*
X138116820Y-123594502D01*
X138236518Y-123630812D01*
X138361000Y-123643072D01*
X139160250Y-123640000D01*
X139319000Y-123481250D01*
X139319000Y-122047000D01*
X139573000Y-122047000D01*
X139573000Y-123481250D01*
X139731750Y-123640000D01*
X140531000Y-123643072D01*
X140655482Y-123630812D01*
X140775180Y-123594502D01*
X140885494Y-123535537D01*
X140982185Y-123456185D01*
X141061537Y-123359494D01*
X141120502Y-123249180D01*
X141123154Y-123240435D01*
X152376040Y-123240435D01*
X153162000Y-124026395D01*
X153947960Y-123240435D01*
X153880980Y-123000344D01*
X153631952Y-122883244D01*
X153364865Y-122816977D01*
X153089983Y-122804090D01*
X152817867Y-122845078D01*
X152558977Y-122938364D01*
X152443020Y-123000344D01*
X152376040Y-123240435D01*
X141123154Y-123240435D01*
X141156812Y-123129482D01*
X141169072Y-123005000D01*
X141166000Y-122205750D01*
X141007250Y-122047000D01*
X139573000Y-122047000D01*
X139319000Y-122047000D01*
X137884750Y-122047000D01*
X137726000Y-122205750D01*
X137722928Y-123005000D01*
X127647700Y-123005000D01*
X127647700Y-120835000D01*
X137722928Y-120835000D01*
X137726000Y-121634250D01*
X137884750Y-121793000D01*
X139319000Y-121793000D01*
X139319000Y-120358750D01*
X139573000Y-120358750D01*
X139573000Y-121793000D01*
X141007250Y-121793000D01*
X141166000Y-121634250D01*
X141169072Y-120835000D01*
X141156812Y-120710518D01*
X141120502Y-120590820D01*
X141061537Y-120480506D01*
X140982185Y-120383815D01*
X140885494Y-120304463D01*
X140775180Y-120245498D01*
X140655482Y-120209188D01*
X140531000Y-120196928D01*
X139731750Y-120200000D01*
X139573000Y-120358750D01*
X139319000Y-120358750D01*
X139160250Y-120200000D01*
X138361000Y-120196928D01*
X138236518Y-120209188D01*
X138116820Y-120245498D01*
X138006506Y-120304463D01*
X137909815Y-120383815D01*
X137830463Y-120480506D01*
X137771498Y-120590820D01*
X137735188Y-120710518D01*
X137722928Y-120835000D01*
X127647700Y-120835000D01*
X127647700Y-108270000D01*
X152335928Y-108270000D01*
X152335928Y-110170000D01*
X152348188Y-110294482D01*
X152384498Y-110414180D01*
X152443463Y-110524494D01*
X152522815Y-110621185D01*
X152619506Y-110700537D01*
X152729820Y-110759502D01*
X152849518Y-110795812D01*
X152974000Y-110808072D01*
X154874000Y-110808072D01*
X154998482Y-110795812D01*
X155118180Y-110759502D01*
X155228494Y-110700537D01*
X155325185Y-110621185D01*
X155404537Y-110524494D01*
X155463502Y-110414180D01*
X155499812Y-110294482D01*
X155512072Y-110170000D01*
X155512072Y-108270000D01*
X155499812Y-108145518D01*
X155463502Y-108025820D01*
X155404537Y-107915506D01*
X155325185Y-107818815D01*
X155228494Y-107739463D01*
X155169979Y-107708186D01*
X155328609Y-107470779D01*
X155448089Y-107182327D01*
X155509000Y-106876109D01*
X155509000Y-106563891D01*
X155448089Y-106257673D01*
X155328609Y-105969221D01*
X155155150Y-105709621D01*
X154934379Y-105488850D01*
X154906168Y-105470000D01*
X154934379Y-105451150D01*
X155155150Y-105230379D01*
X155328609Y-104970779D01*
X155448089Y-104682327D01*
X155509000Y-104376109D01*
X155509000Y-104063891D01*
X155448089Y-103757673D01*
X155328609Y-103469221D01*
X155155150Y-103209621D01*
X154934379Y-102988850D01*
X154674779Y-102815391D01*
X154465403Y-102728665D01*
X157823000Y-102728665D01*
X157823000Y-103011335D01*
X157878147Y-103288574D01*
X157986320Y-103549727D01*
X158143363Y-103784759D01*
X158343241Y-103984637D01*
X158578273Y-104141680D01*
X158839426Y-104249853D01*
X159116665Y-104305000D01*
X159399335Y-104305000D01*
X159676574Y-104249853D01*
X159937727Y-104141680D01*
X160172759Y-103984637D01*
X160372637Y-103784759D01*
X160529680Y-103549727D01*
X160637853Y-103288574D01*
X160693000Y-103011335D01*
X160693000Y-102728665D01*
X160637853Y-102451426D01*
X160529680Y-102190273D01*
X160372637Y-101955241D01*
X160172759Y-101755363D01*
X159937727Y-101598320D01*
X159676574Y-101490147D01*
X159399335Y-101435000D01*
X159116665Y-101435000D01*
X158839426Y-101490147D01*
X158578273Y-101598320D01*
X158343241Y-101755363D01*
X158143363Y-101955241D01*
X157986320Y-102190273D01*
X157878147Y-102451426D01*
X157823000Y-102728665D01*
X154465403Y-102728665D01*
X154386327Y-102695911D01*
X154080109Y-102635000D01*
X153767891Y-102635000D01*
X153461673Y-102695911D01*
X153173221Y-102815391D01*
X152913621Y-102988850D01*
X152692850Y-103209621D01*
X152519391Y-103469221D01*
X152399911Y-103757673D01*
X152339000Y-104063891D01*
X152339000Y-104376109D01*
X152399911Y-104682327D01*
X152519391Y-104970779D01*
X152692850Y-105230379D01*
X152913621Y-105451150D01*
X152941832Y-105470000D01*
X152913621Y-105488850D01*
X152692850Y-105709621D01*
X152519391Y-105969221D01*
X152399911Y-106257673D01*
X152339000Y-106563891D01*
X152339000Y-106876109D01*
X152399911Y-107182327D01*
X152519391Y-107470779D01*
X152678021Y-107708186D01*
X152619506Y-107739463D01*
X152522815Y-107818815D01*
X152443463Y-107915506D01*
X152384498Y-108025820D01*
X152348188Y-108145518D01*
X152335928Y-108270000D01*
X127647700Y-108270000D01*
X127647700Y-101734344D01*
X137561000Y-101734344D01*
X137561000Y-102105656D01*
X137633439Y-102469834D01*
X137775534Y-102812882D01*
X137981825Y-103121618D01*
X138244382Y-103384175D01*
X138553118Y-103590466D01*
X138896166Y-103732561D01*
X139260344Y-103805000D01*
X139631656Y-103805000D01*
X139995834Y-103732561D01*
X140338882Y-103590466D01*
X140647618Y-103384175D01*
X140910175Y-103121618D01*
X141116466Y-102812882D01*
X141258561Y-102469834D01*
X141331000Y-102105656D01*
X141331000Y-101734344D01*
X141258561Y-101370166D01*
X141116466Y-101027118D01*
X140910175Y-100718382D01*
X140647618Y-100455825D01*
X140338882Y-100249534D01*
X139995834Y-100107439D01*
X139631656Y-100035000D01*
X139260344Y-100035000D01*
X138896166Y-100107439D01*
X138553118Y-100249534D01*
X138244382Y-100455825D01*
X137981825Y-100718382D01*
X137775534Y-101027118D01*
X137633439Y-101370166D01*
X137561000Y-101734344D01*
X127647700Y-101734344D01*
X127647700Y-73660000D01*
X142490314Y-73660000D01*
X142494001Y-73697433D01*
X142494000Y-75908576D01*
X142490314Y-75946000D01*
X142494000Y-75983423D01*
X142494000Y-75983425D01*
X142505026Y-76095377D01*
X142548598Y-76239014D01*
X142548599Y-76239015D01*
X142619355Y-76371392D01*
X142658838Y-76419502D01*
X142714578Y-76487422D01*
X142743654Y-76511284D01*
X144722720Y-78490351D01*
X144746578Y-78519422D01*
X144775648Y-78543279D01*
X144862607Y-78614645D01*
X144933364Y-78652465D01*
X144994985Y-78685402D01*
X145138622Y-78728974D01*
X145250574Y-78740000D01*
X145250577Y-78740000D01*
X145288000Y-78743686D01*
X145325423Y-78740000D01*
X163006370Y-78740000D01*
X166116001Y-81849632D01*
X166116000Y-101653293D01*
X165963241Y-101755363D01*
X165763363Y-101955241D01*
X165606320Y-102190273D01*
X165498147Y-102451426D01*
X165443000Y-102728665D01*
X165443000Y-103011335D01*
X165498147Y-103288574D01*
X165606320Y-103549727D01*
X165763363Y-103784759D01*
X165963241Y-103984637D01*
X166198273Y-104141680D01*
X166459426Y-104249853D01*
X166736665Y-104305000D01*
X167019335Y-104305000D01*
X167296574Y-104249853D01*
X167557727Y-104141680D01*
X167792759Y-103984637D01*
X167894000Y-103883396D01*
X167894000Y-109476604D01*
X167792759Y-109375363D01*
X167557727Y-109218320D01*
X167296574Y-109110147D01*
X167019335Y-109055000D01*
X166736665Y-109055000D01*
X166459426Y-109110147D01*
X166198273Y-109218320D01*
X165963241Y-109375363D01*
X165763363Y-109575241D01*
X165606320Y-109810273D01*
X165498147Y-110071426D01*
X165443000Y-110348665D01*
X165443000Y-110631335D01*
X165498147Y-110908574D01*
X165606320Y-111169727D01*
X165763363Y-111404759D01*
X165864604Y-111506000D01*
X164121422Y-111506000D01*
X164084985Y-111502411D01*
X164182637Y-111404759D01*
X164339680Y-111169727D01*
X164447853Y-110908574D01*
X164503000Y-110631335D01*
X164503000Y-110348665D01*
X164447853Y-110071426D01*
X164339680Y-109810273D01*
X164182637Y-109575241D01*
X163982759Y-109375363D01*
X163747727Y-109218320D01*
X163486574Y-109110147D01*
X163209335Y-109055000D01*
X162926665Y-109055000D01*
X162649426Y-109110147D01*
X162388273Y-109218320D01*
X162153241Y-109375363D01*
X162052000Y-109476604D01*
X162052000Y-104963630D01*
X162746473Y-104269157D01*
X162926665Y-104305000D01*
X163209335Y-104305000D01*
X163486574Y-104249853D01*
X163747727Y-104141680D01*
X163982759Y-103984637D01*
X164182637Y-103784759D01*
X164339680Y-103549727D01*
X164447853Y-103288574D01*
X164503000Y-103011335D01*
X164503000Y-102728665D01*
X164447853Y-102451426D01*
X164339680Y-102190273D01*
X164182637Y-101955241D01*
X163982759Y-101755363D01*
X163747727Y-101598320D01*
X163486574Y-101490147D01*
X163209335Y-101435000D01*
X162926665Y-101435000D01*
X162649426Y-101490147D01*
X162388273Y-101598320D01*
X162153241Y-101755363D01*
X161953363Y-101955241D01*
X161796320Y-102190273D01*
X161688147Y-102451426D01*
X161633000Y-102728665D01*
X161633000Y-103011335D01*
X161668843Y-103191527D01*
X160777649Y-104082721D01*
X160748579Y-104106578D01*
X160724722Y-104135648D01*
X160724721Y-104135649D01*
X160653355Y-104222608D01*
X160582599Y-104354985D01*
X160539027Y-104498622D01*
X160524314Y-104648000D01*
X160528001Y-104685433D01*
X160528000Y-109807759D01*
X160372637Y-109575241D01*
X160172759Y-109375363D01*
X159937727Y-109218320D01*
X159676574Y-109110147D01*
X159399335Y-109055000D01*
X159116665Y-109055000D01*
X158839426Y-109110147D01*
X158578273Y-109218320D01*
X158343241Y-109375363D01*
X158143363Y-109575241D01*
X157986320Y-109810273D01*
X157878147Y-110071426D01*
X157823000Y-110348665D01*
X157823000Y-110631335D01*
X157878147Y-110908574D01*
X157986320Y-111169727D01*
X158143363Y-111404759D01*
X158343241Y-111604637D01*
X158578273Y-111761680D01*
X158839426Y-111869853D01*
X159116665Y-111925000D01*
X159399335Y-111925000D01*
X159676574Y-111869853D01*
X159937727Y-111761680D01*
X160172759Y-111604637D01*
X160372637Y-111404759D01*
X160528000Y-111172241D01*
X160528000Y-111698369D01*
X157729649Y-114496721D01*
X157700579Y-114520578D01*
X157676722Y-114549648D01*
X157676721Y-114549649D01*
X157605355Y-114636608D01*
X157534599Y-114768985D01*
X157491027Y-114912622D01*
X157476314Y-115062000D01*
X157480001Y-115099433D01*
X157480001Y-115414995D01*
X157351465Y-115500880D01*
X157156880Y-115695465D01*
X157003995Y-115924273D01*
X156972000Y-116001515D01*
X156940005Y-115924273D01*
X156787120Y-115695465D01*
X156592535Y-115500880D01*
X156363727Y-115347995D01*
X156109490Y-115242686D01*
X155839592Y-115189000D01*
X155564408Y-115189000D01*
X155294510Y-115242686D01*
X155040273Y-115347995D01*
X154811465Y-115500880D01*
X154616880Y-115695465D01*
X154463995Y-115924273D01*
X154432000Y-116001515D01*
X154400005Y-115924273D01*
X154247120Y-115695465D01*
X154052535Y-115500880D01*
X153823727Y-115347995D01*
X153569490Y-115242686D01*
X153299592Y-115189000D01*
X153024408Y-115189000D01*
X152754510Y-115242686D01*
X152500273Y-115347995D01*
X152271465Y-115500880D01*
X152076880Y-115695465D01*
X151923995Y-115924273D01*
X151818686Y-116178510D01*
X151765000Y-116448408D01*
X151765000Y-116723592D01*
X151818686Y-116993490D01*
X151923995Y-117247727D01*
X152076880Y-117476535D01*
X152271465Y-117671120D01*
X152500273Y-117824005D01*
X152754510Y-117929314D01*
X153024408Y-117983000D01*
X153299592Y-117983000D01*
X153569490Y-117929314D01*
X153823727Y-117824005D01*
X154052535Y-117671120D01*
X154247120Y-117476535D01*
X154400005Y-117247727D01*
X154432000Y-117170485D01*
X154463995Y-117247727D01*
X154616880Y-117476535D01*
X154811465Y-117671120D01*
X155040273Y-117824005D01*
X155294510Y-117929314D01*
X155564408Y-117983000D01*
X155839592Y-117983000D01*
X156109490Y-117929314D01*
X156363727Y-117824005D01*
X156592535Y-117671120D01*
X156787120Y-117476535D01*
X156940005Y-117247727D01*
X156972000Y-117170485D01*
X157003995Y-117247727D01*
X157156880Y-117476535D01*
X157351465Y-117671120D01*
X157480001Y-117757005D01*
X157480000Y-119064369D01*
X155189649Y-121354721D01*
X155160579Y-121378578D01*
X155136722Y-121407648D01*
X155136721Y-121407649D01*
X155065355Y-121494608D01*
X154994599Y-121626985D01*
X154951027Y-121770622D01*
X154936314Y-121920000D01*
X154940001Y-121957433D01*
X154940001Y-123034995D01*
X154811465Y-123120880D01*
X154616880Y-123315465D01*
X154463995Y-123544273D01*
X154434308Y-123615943D01*
X154429636Y-123602977D01*
X154367656Y-123487020D01*
X154127565Y-123420040D01*
X153341605Y-124206000D01*
X154127565Y-124991960D01*
X154367656Y-124924980D01*
X154431485Y-124789240D01*
X154463995Y-124867727D01*
X154616880Y-125096535D01*
X154811465Y-125291120D01*
X155040273Y-125444005D01*
X155294510Y-125549314D01*
X155564408Y-125603000D01*
X155839592Y-125603000D01*
X156109490Y-125549314D01*
X156363727Y-125444005D01*
X156592535Y-125291120D01*
X156787120Y-125096535D01*
X156940005Y-124867727D01*
X156972000Y-124790485D01*
X157003995Y-124867727D01*
X157156880Y-125096535D01*
X157351465Y-125291120D01*
X157580273Y-125444005D01*
X157834510Y-125549314D01*
X158104408Y-125603000D01*
X158379592Y-125603000D01*
X158649490Y-125549314D01*
X158903727Y-125444005D01*
X159132535Y-125291120D01*
X159327120Y-125096535D01*
X159480005Y-124867727D01*
X159512000Y-124790485D01*
X159543995Y-124867727D01*
X159696880Y-125096535D01*
X159891465Y-125291120D01*
X160120273Y-125444005D01*
X160374510Y-125549314D01*
X160644408Y-125603000D01*
X160919592Y-125603000D01*
X161189490Y-125549314D01*
X161443727Y-125444005D01*
X161490575Y-125412702D01*
X174954903Y-125412702D01*
X175026486Y-125656671D01*
X175281996Y-125777571D01*
X175556184Y-125846300D01*
X175838512Y-125860217D01*
X176118130Y-125818787D01*
X176384292Y-125723603D01*
X176509514Y-125656671D01*
X176581097Y-125412702D01*
X175768000Y-124599605D01*
X174954903Y-125412702D01*
X161490575Y-125412702D01*
X161672535Y-125291120D01*
X161867120Y-125096535D01*
X161989953Y-124912702D01*
X165810903Y-124912702D01*
X165882486Y-125156671D01*
X166137996Y-125277571D01*
X166412184Y-125346300D01*
X166694512Y-125360217D01*
X166974130Y-125318787D01*
X167240292Y-125223603D01*
X167365514Y-125156671D01*
X167437097Y-124912702D01*
X166624000Y-124099605D01*
X165810903Y-124912702D01*
X161989953Y-124912702D01*
X162020005Y-124867727D01*
X162125314Y-124613490D01*
X162179000Y-124343592D01*
X162179000Y-124068408D01*
X162163506Y-123990512D01*
X165183783Y-123990512D01*
X165225213Y-124270130D01*
X165320397Y-124536292D01*
X165387329Y-124661514D01*
X165631298Y-124733097D01*
X166444395Y-123920000D01*
X166430253Y-123905858D01*
X166609858Y-123726253D01*
X166624000Y-123740395D01*
X166638143Y-123726253D01*
X166817748Y-123905858D01*
X166803605Y-123920000D01*
X167616702Y-124733097D01*
X167860671Y-124661514D01*
X167941584Y-124490512D01*
X174327783Y-124490512D01*
X174369213Y-124770130D01*
X174464397Y-125036292D01*
X174531329Y-125161514D01*
X174775298Y-125233097D01*
X175588395Y-124420000D01*
X175947605Y-124420000D01*
X176760702Y-125233097D01*
X177004671Y-125161514D01*
X177125571Y-124906004D01*
X177194300Y-124631816D01*
X177208217Y-124349488D01*
X177166787Y-124069870D01*
X177071603Y-123803708D01*
X177004671Y-123678486D01*
X176760702Y-123606903D01*
X175947605Y-124420000D01*
X175588395Y-124420000D01*
X174775298Y-123606903D01*
X174531329Y-123678486D01*
X174410429Y-123933996D01*
X174341700Y-124208184D01*
X174327783Y-124490512D01*
X167941584Y-124490512D01*
X167981571Y-124406004D01*
X168050300Y-124131816D01*
X168064217Y-123849488D01*
X168022787Y-123569870D01*
X167927603Y-123303708D01*
X167862384Y-123181691D01*
X167875185Y-123171185D01*
X167954537Y-123074494D01*
X168013502Y-122964180D01*
X168049812Y-122844482D01*
X168062072Y-122720000D01*
X168062072Y-121120000D01*
X174329928Y-121120000D01*
X174329928Y-122720000D01*
X174342188Y-122844482D01*
X174378498Y-122964180D01*
X174437463Y-123074494D01*
X174516815Y-123171185D01*
X174613506Y-123250537D01*
X174723820Y-123309502D01*
X174843518Y-123345812D01*
X174968000Y-123358072D01*
X174975215Y-123358072D01*
X174954903Y-123427298D01*
X175768000Y-124240395D01*
X176581097Y-123427298D01*
X176560785Y-123358072D01*
X176568000Y-123358072D01*
X176692482Y-123345812D01*
X176812180Y-123309502D01*
X176922494Y-123250537D01*
X177019185Y-123171185D01*
X177098537Y-123074494D01*
X177157502Y-122964180D01*
X177193812Y-122844482D01*
X177206072Y-122720000D01*
X177206072Y-121120000D01*
X177193812Y-120995518D01*
X177157502Y-120875820D01*
X177098537Y-120765506D01*
X177019185Y-120668815D01*
X176922494Y-120589463D01*
X176812180Y-120530498D01*
X176692482Y-120494188D01*
X176568000Y-120481928D01*
X174968000Y-120481928D01*
X174843518Y-120494188D01*
X174723820Y-120530498D01*
X174613506Y-120589463D01*
X174516815Y-120668815D01*
X174437463Y-120765506D01*
X174378498Y-120875820D01*
X174342188Y-120995518D01*
X174329928Y-121120000D01*
X168062072Y-121120000D01*
X168049812Y-120995518D01*
X168013502Y-120875820D01*
X167954537Y-120765506D01*
X167875185Y-120668815D01*
X167778494Y-120589463D01*
X167668180Y-120530498D01*
X167548482Y-120494188D01*
X167424000Y-120481928D01*
X165824000Y-120481928D01*
X165699518Y-120494188D01*
X165579820Y-120530498D01*
X165469506Y-120589463D01*
X165372815Y-120668815D01*
X165293463Y-120765506D01*
X165234498Y-120875820D01*
X165198188Y-120995518D01*
X165185928Y-121120000D01*
X165185928Y-122720000D01*
X165198188Y-122844482D01*
X165234498Y-122964180D01*
X165293463Y-123074494D01*
X165372815Y-123171185D01*
X165385758Y-123181807D01*
X165266429Y-123433996D01*
X165197700Y-123708184D01*
X165183783Y-123990512D01*
X162163506Y-123990512D01*
X162125314Y-123798510D01*
X162020005Y-123544273D01*
X161867120Y-123315465D01*
X161672535Y-123120880D01*
X161443727Y-122967995D01*
X161189490Y-122862686D01*
X160919592Y-122809000D01*
X160644408Y-122809000D01*
X160374510Y-122862686D01*
X160120273Y-122967995D01*
X159891465Y-123120880D01*
X159696880Y-123315465D01*
X159543995Y-123544273D01*
X159512000Y-123621515D01*
X159480005Y-123544273D01*
X159327120Y-123315465D01*
X159132535Y-123120880D01*
X159004000Y-123034995D01*
X159004000Y-122743630D01*
X163326353Y-118421278D01*
X163355422Y-118397422D01*
X163450645Y-118281392D01*
X163521402Y-118149015D01*
X163564974Y-118005378D01*
X163576000Y-117893426D01*
X163576000Y-117893424D01*
X163579686Y-117856001D01*
X163576000Y-117818578D01*
X163576000Y-117340000D01*
X164727928Y-117340000D01*
X164740188Y-117464482D01*
X164776498Y-117584180D01*
X164835463Y-117694494D01*
X164914815Y-117791185D01*
X165011506Y-117870537D01*
X165121820Y-117929502D01*
X165241518Y-117965812D01*
X165366000Y-117978072D01*
X165830250Y-117975000D01*
X165989000Y-117816250D01*
X165989000Y-116967000D01*
X166243000Y-116967000D01*
X166243000Y-117816250D01*
X166401750Y-117975000D01*
X166866000Y-117978072D01*
X166990482Y-117965812D01*
X167110180Y-117929502D01*
X167220494Y-117870537D01*
X167317185Y-117791185D01*
X167396537Y-117694494D01*
X167455502Y-117584180D01*
X167491812Y-117464482D01*
X167504072Y-117340000D01*
X167501000Y-117125750D01*
X167342250Y-116967000D01*
X166243000Y-116967000D01*
X165989000Y-116967000D01*
X164889750Y-116967000D01*
X164731000Y-117125750D01*
X164727928Y-117340000D01*
X163576000Y-117340000D01*
X163576000Y-114300000D01*
X164725509Y-114300000D01*
X164747423Y-114522499D01*
X164812324Y-114736447D01*
X164917716Y-114933623D01*
X164918846Y-114935000D01*
X164917716Y-114936377D01*
X164812324Y-115133553D01*
X164747423Y-115347501D01*
X164725509Y-115570000D01*
X164747423Y-115792499D01*
X164812324Y-116006447D01*
X164818297Y-116017621D01*
X164776498Y-116095820D01*
X164740188Y-116215518D01*
X164727928Y-116340000D01*
X164731000Y-116554250D01*
X164889750Y-116713000D01*
X165989000Y-116713000D01*
X165989000Y-116705000D01*
X166243000Y-116705000D01*
X166243000Y-116713000D01*
X167342250Y-116713000D01*
X167501000Y-116554250D01*
X167504072Y-116340000D01*
X167491812Y-116215518D01*
X167455502Y-116095820D01*
X167413703Y-116017621D01*
X167419676Y-116006447D01*
X167484577Y-115792499D01*
X167495394Y-115682665D01*
X169761000Y-115682665D01*
X169761000Y-115965335D01*
X169816147Y-116242574D01*
X169924320Y-116503727D01*
X170081363Y-116738759D01*
X170281241Y-116938637D01*
X170516273Y-117095680D01*
X170777426Y-117203853D01*
X171054665Y-117259000D01*
X171337335Y-117259000D01*
X171614574Y-117203853D01*
X171875727Y-117095680D01*
X172110759Y-116938637D01*
X172310637Y-116738759D01*
X172467680Y-116503727D01*
X172575853Y-116242574D01*
X172631000Y-115965335D01*
X172631000Y-115682665D01*
X172575853Y-115405426D01*
X172467680Y-115144273D01*
X172310637Y-114909241D01*
X172110759Y-114709363D01*
X171875727Y-114552320D01*
X171614574Y-114444147D01*
X171337335Y-114389000D01*
X171054665Y-114389000D01*
X170777426Y-114444147D01*
X170516273Y-114552320D01*
X170281241Y-114709363D01*
X170081363Y-114909241D01*
X169924320Y-115144273D01*
X169816147Y-115405426D01*
X169761000Y-115682665D01*
X167495394Y-115682665D01*
X167506491Y-115570000D01*
X167484577Y-115347501D01*
X167419676Y-115133553D01*
X167314284Y-114936377D01*
X167313154Y-114935000D01*
X167314284Y-114933623D01*
X167419676Y-114736447D01*
X167484577Y-114522499D01*
X167506491Y-114300000D01*
X167484577Y-114077501D01*
X167419676Y-113863553D01*
X167314284Y-113666377D01*
X167172449Y-113493551D01*
X166999623Y-113351716D01*
X166802447Y-113246324D01*
X166588499Y-113181423D01*
X166421752Y-113165000D01*
X165810248Y-113165000D01*
X165643501Y-113181423D01*
X165429553Y-113246324D01*
X165232377Y-113351716D01*
X165059551Y-113493551D01*
X164917716Y-113666377D01*
X164812324Y-113863553D01*
X164747423Y-114077501D01*
X164725509Y-114300000D01*
X163576000Y-114300000D01*
X163576000Y-113853630D01*
X164399631Y-113030000D01*
X171920577Y-113030000D01*
X171958000Y-113033686D01*
X171995423Y-113030000D01*
X171995426Y-113030000D01*
X172107378Y-113018974D01*
X172251015Y-112975402D01*
X172383392Y-112904645D01*
X172499422Y-112809422D01*
X172523284Y-112780347D01*
X173232353Y-112071278D01*
X173261422Y-112047422D01*
X173288851Y-112014000D01*
X173356645Y-111931393D01*
X173427401Y-111799016D01*
X173427402Y-111799015D01*
X173470974Y-111655378D01*
X173482000Y-111543426D01*
X173482000Y-111543423D01*
X173485589Y-111506985D01*
X173583241Y-111604637D01*
X173818273Y-111761680D01*
X174079426Y-111869853D01*
X174356665Y-111925000D01*
X174639335Y-111925000D01*
X174916574Y-111869853D01*
X175177727Y-111761680D01*
X175412759Y-111604637D01*
X175612637Y-111404759D01*
X175769680Y-111169727D01*
X175877853Y-110908574D01*
X175891684Y-110839040D01*
X176916091Y-110839040D01*
X177010930Y-111103881D01*
X177155615Y-111345131D01*
X177344586Y-111553519D01*
X177570580Y-111721037D01*
X177824913Y-111841246D01*
X177958961Y-111881904D01*
X178181000Y-111759915D01*
X178181000Y-110617000D01*
X178435000Y-110617000D01*
X178435000Y-111759915D01*
X178657039Y-111881904D01*
X178791087Y-111841246D01*
X179045420Y-111721037D01*
X179271414Y-111553519D01*
X179460385Y-111345131D01*
X179605070Y-111103881D01*
X179699909Y-110839040D01*
X179578624Y-110617000D01*
X178435000Y-110617000D01*
X178181000Y-110617000D01*
X177037376Y-110617000D01*
X176916091Y-110839040D01*
X175891684Y-110839040D01*
X175933000Y-110631335D01*
X175933000Y-110348665D01*
X175891685Y-110140960D01*
X176916091Y-110140960D01*
X177037376Y-110363000D01*
X178181000Y-110363000D01*
X178181000Y-109220085D01*
X178435000Y-109220085D01*
X178435000Y-110363000D01*
X179578624Y-110363000D01*
X179699909Y-110140960D01*
X179605070Y-109876119D01*
X179460385Y-109634869D01*
X179271414Y-109426481D01*
X179045420Y-109258963D01*
X178791087Y-109138754D01*
X178657039Y-109098096D01*
X178435000Y-109220085D01*
X178181000Y-109220085D01*
X177958961Y-109098096D01*
X177824913Y-109138754D01*
X177570580Y-109258963D01*
X177344586Y-109426481D01*
X177155615Y-109634869D01*
X177010930Y-109876119D01*
X176916091Y-110140960D01*
X175891685Y-110140960D01*
X175877853Y-110071426D01*
X175769680Y-109810273D01*
X175612637Y-109575241D01*
X175412759Y-109375363D01*
X175177727Y-109218320D01*
X174916574Y-109110147D01*
X174639335Y-109055000D01*
X174356665Y-109055000D01*
X174079426Y-109110147D01*
X173818273Y-109218320D01*
X173583241Y-109375363D01*
X173482000Y-109476604D01*
X173482000Y-104963630D01*
X174176473Y-104269157D01*
X174356665Y-104305000D01*
X174639335Y-104305000D01*
X174916574Y-104249853D01*
X175177727Y-104141680D01*
X175412759Y-103984637D01*
X175612637Y-103784759D01*
X175769680Y-103549727D01*
X175877853Y-103288574D01*
X175933000Y-103011335D01*
X175933000Y-102728665D01*
X176873000Y-102728665D01*
X176873000Y-103011335D01*
X176928147Y-103288574D01*
X177036320Y-103549727D01*
X177193363Y-103784759D01*
X177393241Y-103984637D01*
X177628273Y-104141680D01*
X177889426Y-104249853D01*
X178166665Y-104305000D01*
X178449335Y-104305000D01*
X178726574Y-104249853D01*
X178987727Y-104141680D01*
X179222759Y-103984637D01*
X179422637Y-103784759D01*
X179579680Y-103549727D01*
X179687853Y-103288574D01*
X179743000Y-103011335D01*
X179743000Y-102728665D01*
X179687853Y-102451426D01*
X179579680Y-102190273D01*
X179422637Y-101955241D01*
X179222759Y-101755363D01*
X178987727Y-101598320D01*
X178726574Y-101490147D01*
X178449335Y-101435000D01*
X178166665Y-101435000D01*
X177889426Y-101490147D01*
X177628273Y-101598320D01*
X177393241Y-101755363D01*
X177193363Y-101955241D01*
X177036320Y-102190273D01*
X176928147Y-102451426D01*
X176873000Y-102728665D01*
X175933000Y-102728665D01*
X175877853Y-102451426D01*
X175769680Y-102190273D01*
X175612637Y-101955241D01*
X175412759Y-101755363D01*
X175177727Y-101598320D01*
X174916574Y-101490147D01*
X174639335Y-101435000D01*
X174356665Y-101435000D01*
X174079426Y-101490147D01*
X173818273Y-101598320D01*
X173583241Y-101755363D01*
X173383363Y-101955241D01*
X173226320Y-102190273D01*
X173118147Y-102451426D01*
X173063000Y-102728665D01*
X173063000Y-103011335D01*
X173098843Y-103191527D01*
X172207649Y-104082721D01*
X172178579Y-104106578D01*
X172154722Y-104135648D01*
X172154721Y-104135649D01*
X172083355Y-104222608D01*
X172012599Y-104354985D01*
X171969027Y-104498622D01*
X171954314Y-104648000D01*
X171958001Y-104685433D01*
X171958000Y-109807759D01*
X171802637Y-109575241D01*
X171602759Y-109375363D01*
X171367727Y-109218320D01*
X171106574Y-109110147D01*
X170829335Y-109055000D01*
X170546665Y-109055000D01*
X170269426Y-109110147D01*
X170008273Y-109218320D01*
X169773241Y-109375363D01*
X169573363Y-109575241D01*
X169418000Y-109807759D01*
X169418000Y-103552241D01*
X169573363Y-103784759D01*
X169773241Y-103984637D01*
X170008273Y-104141680D01*
X170269426Y-104249853D01*
X170546665Y-104305000D01*
X170829335Y-104305000D01*
X171106574Y-104249853D01*
X171367727Y-104141680D01*
X171602759Y-103984637D01*
X171802637Y-103784759D01*
X171959680Y-103549727D01*
X172067853Y-103288574D01*
X172123000Y-103011335D01*
X172123000Y-102728665D01*
X172067853Y-102451426D01*
X171959680Y-102190273D01*
X171802637Y-101955241D01*
X171602759Y-101755363D01*
X171450000Y-101653293D01*
X171450000Y-77507423D01*
X171453686Y-77470000D01*
X171450000Y-77432574D01*
X171438974Y-77320622D01*
X171395402Y-77176985D01*
X171362465Y-77115364D01*
X171324645Y-77044607D01*
X171253279Y-76957648D01*
X171229422Y-76928578D01*
X171200352Y-76904721D01*
X166173284Y-71877654D01*
X166149422Y-71848578D01*
X166033392Y-71753355D01*
X165901015Y-71682598D01*
X165757378Y-71639026D01*
X165645426Y-71628000D01*
X165645423Y-71628000D01*
X165608000Y-71624314D01*
X165570577Y-71628000D01*
X161610976Y-71628000D01*
X161466312Y-71411495D01*
X161252505Y-71197688D01*
X161001095Y-71029701D01*
X160721743Y-70913989D01*
X160425184Y-70855000D01*
X160122816Y-70855000D01*
X159826257Y-70913989D01*
X159546905Y-71029701D01*
X159295495Y-71197688D01*
X159081688Y-71411495D01*
X158913701Y-71662905D01*
X158797989Y-71942257D01*
X158739000Y-72238816D01*
X158739000Y-72541184D01*
X158797989Y-72837743D01*
X158913701Y-73117095D01*
X159081688Y-73368505D01*
X159148127Y-73434944D01*
X159129820Y-73440498D01*
X159019506Y-73499463D01*
X158922815Y-73578815D01*
X158843463Y-73675506D01*
X158784498Y-73785820D01*
X158748188Y-73905518D01*
X158735928Y-74030000D01*
X158735928Y-74168000D01*
X149112072Y-74168000D01*
X149112072Y-74030000D01*
X149099812Y-73905518D01*
X149063502Y-73785820D01*
X149004537Y-73675506D01*
X148925185Y-73578815D01*
X148828494Y-73499463D01*
X148718180Y-73440498D01*
X148699873Y-73434944D01*
X148766312Y-73368505D01*
X148934299Y-73117095D01*
X149050011Y-72837743D01*
X149109000Y-72541184D01*
X149109000Y-72238816D01*
X149050011Y-71942257D01*
X148934299Y-71662905D01*
X148766312Y-71411495D01*
X148552505Y-71197688D01*
X148301095Y-71029701D01*
X148021743Y-70913989D01*
X147725184Y-70855000D01*
X147422816Y-70855000D01*
X147126257Y-70913989D01*
X146846905Y-71029701D01*
X146595495Y-71197688D01*
X146381688Y-71411495D01*
X146237024Y-71628000D01*
X144563422Y-71628000D01*
X144525999Y-71624314D01*
X144488576Y-71628000D01*
X144488574Y-71628000D01*
X144376622Y-71639026D01*
X144232985Y-71682598D01*
X144100608Y-71753355D01*
X143984578Y-71848578D01*
X143960721Y-71877648D01*
X142743649Y-73094721D01*
X142714579Y-73118578D01*
X142690722Y-73147648D01*
X142690721Y-73147649D01*
X142619355Y-73234608D01*
X142548599Y-73366985D01*
X142505027Y-73510622D01*
X142490314Y-73660000D01*
X127647700Y-73660000D01*
X127647700Y-45801595D01*
X146294012Y-45801595D01*
X146294422Y-45860299D01*
X146294012Y-45919003D01*
X146294894Y-45928003D01*
X146333757Y-46297757D01*
X146345563Y-46355274D01*
X146356561Y-46412926D01*
X146359175Y-46421584D01*
X146469117Y-46776747D01*
X146491874Y-46830883D01*
X146513857Y-46885293D01*
X146518102Y-46893278D01*
X146694934Y-47220323D01*
X146727766Y-47268999D01*
X146759906Y-47318114D01*
X146765622Y-47325122D01*
X147002611Y-47611592D01*
X147044267Y-47652958D01*
X147085338Y-47694899D01*
X147092306Y-47700663D01*
X147380423Y-47935646D01*
X147429336Y-47968144D01*
X147477758Y-48001299D01*
X147485708Y-48005597D01*
X147485712Y-48005600D01*
X147485716Y-48005602D01*
X147813985Y-48180145D01*
X147868261Y-48202516D01*
X147922215Y-48225642D01*
X147930852Y-48228315D01*
X147930856Y-48228317D01*
X147930860Y-48228318D01*
X148286777Y-48335775D01*
X148344338Y-48347173D01*
X148401787Y-48359384D01*
X148410778Y-48360329D01*
X148410780Y-48360329D01*
X148780796Y-48396609D01*
X148780809Y-48396609D01*
X148812191Y-48399700D01*
X159035809Y-48399700D01*
X159069080Y-48396423D01*
X159093803Y-48396423D01*
X159102796Y-48395478D01*
X159472270Y-48354035D01*
X159529710Y-48341826D01*
X159587278Y-48330427D01*
X159595917Y-48327753D01*
X159950304Y-48215335D01*
X160004293Y-48192195D01*
X160058536Y-48169838D01*
X160066491Y-48165537D01*
X160392294Y-47986425D01*
X160440740Y-47953253D01*
X160489627Y-47920773D01*
X160496590Y-47915012D01*
X160496596Y-47915008D01*
X160496601Y-47915003D01*
X160781403Y-47676026D01*
X160822470Y-47634090D01*
X160864132Y-47592719D01*
X160869847Y-47585711D01*
X161102813Y-47295960D01*
X161134962Y-47246832D01*
X161167785Y-47198170D01*
X161172030Y-47190185D01*
X161344279Y-46860703D01*
X161366282Y-46806243D01*
X161389019Y-46752156D01*
X161391633Y-46743498D01*
X161496605Y-46386833D01*
X161507611Y-46329137D01*
X161519409Y-46271665D01*
X161520290Y-46262672D01*
X161520292Y-46262663D01*
X161520292Y-46262655D01*
X161553988Y-45892405D01*
X161553578Y-45833701D01*
X161553988Y-45774998D01*
X161553106Y-45765998D01*
X161514243Y-45396243D01*
X161502430Y-45338696D01*
X161491438Y-45281073D01*
X161488825Y-45272416D01*
X161378883Y-44917252D01*
X161356114Y-44863088D01*
X161334143Y-44808706D01*
X161329898Y-44800722D01*
X161153066Y-44473677D01*
X161120234Y-44425001D01*
X161088094Y-44375886D01*
X161082378Y-44368878D01*
X160845389Y-44082408D01*
X160803733Y-44041042D01*
X160762662Y-43999101D01*
X160755694Y-43993337D01*
X160467577Y-43758354D01*
X160418664Y-43725856D01*
X160370242Y-43692701D01*
X160362292Y-43688403D01*
X160362288Y-43688400D01*
X160362284Y-43688398D01*
X160034015Y-43513855D01*
X159979753Y-43491490D01*
X159925784Y-43468358D01*
X159917145Y-43465684D01*
X159561223Y-43358224D01*
X159503626Y-43346819D01*
X159446213Y-43334616D01*
X159437223Y-43333671D01*
X159437219Y-43333671D01*
X159067204Y-43297391D01*
X159067191Y-43297391D01*
X159035809Y-43294300D01*
X148812191Y-43294300D01*
X148778920Y-43297577D01*
X148754197Y-43297577D01*
X148745204Y-43298522D01*
X148375730Y-43339965D01*
X148318265Y-43352180D01*
X148260722Y-43363573D01*
X148252083Y-43366247D01*
X147897696Y-43478665D01*
X147843720Y-43501799D01*
X147789463Y-43524162D01*
X147781509Y-43528463D01*
X147455706Y-43707575D01*
X147407277Y-43740735D01*
X147358372Y-43773227D01*
X147351410Y-43778988D01*
X147351404Y-43778992D01*
X147351399Y-43778997D01*
X147066597Y-44017974D01*
X147025511Y-44059929D01*
X146983868Y-44101282D01*
X146978158Y-44108284D01*
X146978153Y-44108289D01*
X146978149Y-44108294D01*
X146745187Y-44398040D01*
X146713042Y-44447163D01*
X146680215Y-44495831D01*
X146675973Y-44503811D01*
X146675970Y-44503815D01*
X146675970Y-44503816D01*
X146503721Y-44833297D01*
X146481722Y-44887745D01*
X146458981Y-44941844D01*
X146456367Y-44950501D01*
X146351395Y-45307167D01*
X146340389Y-45364863D01*
X146328591Y-45422335D01*
X146327710Y-45431328D01*
X146327708Y-45431337D01*
X146327708Y-45431345D01*
X146294012Y-45801595D01*
X127647700Y-45801595D01*
X127647700Y-42049700D01*
X174078429Y-42049700D01*
X174078429Y-45718000D01*
%TD*%
M02*
