%TF.GenerationSoftware,KiCad,Pcbnew,(5.1.6)-1*%
%TF.CreationDate,2020-08-19T23:20:37-05:00*%
%TF.ProjectId,555_badge,3535355f-6261-4646-9765-2e6b69636164,m01*%
%TF.SameCoordinates,Original*%
%TF.FileFunction,Soldermask,Top*%
%TF.FilePolarity,Negative*%
%FSLAX46Y46*%
G04 Gerber Fmt 4.6, Leading zero omitted, Abs format (unit mm)*
G04 Created by KiCad (PCBNEW (5.1.6)-1) date 2020-08-19 23:20:37*
%MOMM*%
%LPD*%
G01*
G04 APERTURE LIST*
%ADD10C,1.625600*%
%ADD11R,2.271600X2.271600*%
%ADD12C,2.601600*%
%ADD13R,1.701600X1.701600*%
%ADD14C,1.701600*%
%ADD15R,1.901600X1.901600*%
%ADD16C,1.901600*%
%ADD17O,1.601600X1.101600*%
%ADD18R,1.601600X1.101600*%
%ADD19O,1.701600X1.701600*%
%ADD20R,2.001600X2.001600*%
%ADD21C,2.001600*%
G04 APERTURE END LIST*
D10*
%TO.C,U1*%
X160782000Y-116586000D03*
X153162000Y-124206000D03*
X155702000Y-124206000D03*
X158242000Y-124206000D03*
X160782000Y-124206000D03*
X158242000Y-116586000D03*
X155702000Y-116586000D03*
X153162000Y-116586000D03*
%TD*%
D11*
%TO.C,BAT1*%
X139446000Y-121920000D03*
D12*
X139446000Y-101920000D03*
%TD*%
D13*
%TO.C,C1*%
X166624000Y-121920000D03*
D14*
X166624000Y-123920000D03*
%TD*%
D13*
%TO.C,C2*%
X175768000Y-121920000D03*
D14*
X175768000Y-124420000D03*
%TD*%
D15*
%TO.C,D1*%
X147574000Y-74930000D03*
D16*
X147574000Y-72390000D03*
%TD*%
%TO.C,D2*%
X160274000Y-72390000D03*
D15*
X160274000Y-74930000D03*
%TD*%
D17*
%TO.C,Q1*%
X166116000Y-115570000D03*
X166116000Y-114300000D03*
D18*
X166116000Y-116840000D03*
%TD*%
D14*
%TO.C,R1*%
X159258000Y-102870000D03*
D19*
X159258000Y-110490000D03*
%TD*%
%TO.C,R2*%
X163068000Y-102870000D03*
D14*
X163068000Y-110490000D03*
%TD*%
%TO.C,R3*%
X174498000Y-110490000D03*
D19*
X174498000Y-102870000D03*
%TD*%
%TO.C,R4*%
X178308000Y-110490000D03*
D14*
X178308000Y-102870000D03*
%TD*%
%TO.C,R5*%
X171196000Y-115824000D03*
D19*
X178816000Y-115824000D03*
%TD*%
%TO.C,R6*%
X166878000Y-102870000D03*
D14*
X166878000Y-110490000D03*
%TD*%
%TO.C,R7*%
X170688000Y-110490000D03*
D19*
X170688000Y-102870000D03*
%TD*%
D20*
%TO.C,S1*%
X153924000Y-109220000D03*
D21*
X153924000Y-106720000D03*
X153924000Y-104220000D03*
%TD*%
M02*
