%TF.GenerationSoftware,KiCad,Pcbnew,(5.1.6)-1*%
%TF.CreationDate,2020-08-19T23:20:37-05:00*%
%TF.ProjectId,555_badge,3535355f-6261-4646-9765-2e6b69636164,m01*%
%TF.SameCoordinates,Original*%
%TF.FileFunction,Legend,Top*%
%TF.FilePolarity,Positive*%
%FSLAX46Y46*%
G04 Gerber Fmt 4.6, Leading zero omitted, Abs format (unit mm)*
G04 Created by KiCad (PCBNEW (5.1.6)-1) date 2020-08-19 23:20:37*
%MOMM*%
%LPD*%
G01*
G04 APERTURE LIST*
%ADD10C,0.150000*%
%ADD11C,0.203200*%
%ADD12C,0.100000*%
%ADD13C,0.120000*%
%ADD14C,0.254000*%
G04 APERTURE END LIST*
D10*
X149494952Y-103592380D02*
X149685428Y-103592380D01*
X149780666Y-103640000D01*
X149875904Y-103735238D01*
X149923523Y-103925714D01*
X149923523Y-104259047D01*
X149875904Y-104449523D01*
X149780666Y-104544761D01*
X149685428Y-104592380D01*
X149494952Y-104592380D01*
X149399714Y-104544761D01*
X149304476Y-104449523D01*
X149256857Y-104259047D01*
X149256857Y-103925714D01*
X149304476Y-103735238D01*
X149399714Y-103640000D01*
X149494952Y-103592380D01*
X150352095Y-104592380D02*
X150352095Y-103592380D01*
X150923523Y-104592380D01*
X150923523Y-103592380D01*
X144399047Y-103703428D02*
X145160952Y-103703428D01*
X144780000Y-104084380D02*
X144780000Y-103322476D01*
D11*
%TO.C,U1*%
X151892000Y-124460000D02*
G75*
G03*
X151892000Y-124460000I-254000J0D01*
G01*
X162052000Y-123952000D02*
X162052000Y-116840000D01*
X151892000Y-123952000D02*
X151892000Y-116840000D01*
D12*
%TO.C,BAT1*%
X143357600Y-101142800D02*
X140512800Y-101142800D01*
X135534400Y-101142800D02*
X138379200Y-101142800D01*
X143357600Y-103886000D02*
X143357600Y-101142800D01*
X135534400Y-103886000D02*
X135534400Y-101142800D01*
X150672800Y-114452400D02*
G75*
G03*
X150672800Y-114452400I-11226800J0D01*
G01*
D13*
%TO.C,C1*%
X169244000Y-122920000D02*
G75*
G03*
X169244000Y-122920000I-2620000J0D01*
G01*
X165584000Y-122920000D02*
X164044000Y-122920000D01*
X169204000Y-122920000D02*
X167664000Y-122920000D01*
X165584000Y-122960000D02*
X164044000Y-122960000D01*
X169204000Y-122960000D02*
X167664000Y-122960000D01*
X169203000Y-123000000D02*
X167664000Y-123000000D01*
X165584000Y-123000000D02*
X164045000Y-123000000D01*
X169202000Y-123040000D02*
X167664000Y-123040000D01*
X165584000Y-123040000D02*
X164046000Y-123040000D01*
X169200000Y-123080000D02*
X167664000Y-123080000D01*
X165584000Y-123080000D02*
X164048000Y-123080000D01*
X169197000Y-123120000D02*
X167664000Y-123120000D01*
X165584000Y-123120000D02*
X164051000Y-123120000D01*
X169193000Y-123160000D02*
X167664000Y-123160000D01*
X165584000Y-123160000D02*
X164055000Y-123160000D01*
X169189000Y-123200000D02*
X167664000Y-123200000D01*
X165584000Y-123200000D02*
X164059000Y-123200000D01*
X169185000Y-123240000D02*
X167664000Y-123240000D01*
X165584000Y-123240000D02*
X164063000Y-123240000D01*
X169180000Y-123280000D02*
X167664000Y-123280000D01*
X165584000Y-123280000D02*
X164068000Y-123280000D01*
X169174000Y-123320000D02*
X167664000Y-123320000D01*
X165584000Y-123320000D02*
X164074000Y-123320000D01*
X169167000Y-123360000D02*
X167664000Y-123360000D01*
X165584000Y-123360000D02*
X164081000Y-123360000D01*
X169160000Y-123400000D02*
X167664000Y-123400000D01*
X165584000Y-123400000D02*
X164088000Y-123400000D01*
X169152000Y-123440000D02*
X167664000Y-123440000D01*
X165584000Y-123440000D02*
X164096000Y-123440000D01*
X169144000Y-123480000D02*
X167664000Y-123480000D01*
X165584000Y-123480000D02*
X164104000Y-123480000D01*
X169135000Y-123520000D02*
X167664000Y-123520000D01*
X165584000Y-123520000D02*
X164113000Y-123520000D01*
X169125000Y-123560000D02*
X167664000Y-123560000D01*
X165584000Y-123560000D02*
X164123000Y-123560000D01*
X169115000Y-123600000D02*
X167664000Y-123600000D01*
X165584000Y-123600000D02*
X164133000Y-123600000D01*
X169104000Y-123641000D02*
X167664000Y-123641000D01*
X165584000Y-123641000D02*
X164144000Y-123641000D01*
X169092000Y-123681000D02*
X167664000Y-123681000D01*
X165584000Y-123681000D02*
X164156000Y-123681000D01*
X169079000Y-123721000D02*
X167664000Y-123721000D01*
X165584000Y-123721000D02*
X164169000Y-123721000D01*
X169066000Y-123761000D02*
X167664000Y-123761000D01*
X165584000Y-123761000D02*
X164182000Y-123761000D01*
X169052000Y-123801000D02*
X167664000Y-123801000D01*
X165584000Y-123801000D02*
X164196000Y-123801000D01*
X169038000Y-123841000D02*
X167664000Y-123841000D01*
X165584000Y-123841000D02*
X164210000Y-123841000D01*
X169022000Y-123881000D02*
X167664000Y-123881000D01*
X165584000Y-123881000D02*
X164226000Y-123881000D01*
X169006000Y-123921000D02*
X167664000Y-123921000D01*
X165584000Y-123921000D02*
X164242000Y-123921000D01*
X168989000Y-123961000D02*
X167664000Y-123961000D01*
X165584000Y-123961000D02*
X164259000Y-123961000D01*
X168972000Y-124001000D02*
X167664000Y-124001000D01*
X165584000Y-124001000D02*
X164276000Y-124001000D01*
X168953000Y-124041000D02*
X167664000Y-124041000D01*
X165584000Y-124041000D02*
X164295000Y-124041000D01*
X168934000Y-124081000D02*
X167664000Y-124081000D01*
X165584000Y-124081000D02*
X164314000Y-124081000D01*
X168914000Y-124121000D02*
X167664000Y-124121000D01*
X165584000Y-124121000D02*
X164334000Y-124121000D01*
X168892000Y-124161000D02*
X167664000Y-124161000D01*
X165584000Y-124161000D02*
X164356000Y-124161000D01*
X168871000Y-124201000D02*
X167664000Y-124201000D01*
X165584000Y-124201000D02*
X164377000Y-124201000D01*
X168848000Y-124241000D02*
X167664000Y-124241000D01*
X165584000Y-124241000D02*
X164400000Y-124241000D01*
X168824000Y-124281000D02*
X167664000Y-124281000D01*
X165584000Y-124281000D02*
X164424000Y-124281000D01*
X168799000Y-124321000D02*
X167664000Y-124321000D01*
X165584000Y-124321000D02*
X164449000Y-124321000D01*
X168773000Y-124361000D02*
X167664000Y-124361000D01*
X165584000Y-124361000D02*
X164475000Y-124361000D01*
X168746000Y-124401000D02*
X167664000Y-124401000D01*
X165584000Y-124401000D02*
X164502000Y-124401000D01*
X168719000Y-124441000D02*
X167664000Y-124441000D01*
X165584000Y-124441000D02*
X164529000Y-124441000D01*
X168689000Y-124481000D02*
X167664000Y-124481000D01*
X165584000Y-124481000D02*
X164559000Y-124481000D01*
X168659000Y-124521000D02*
X167664000Y-124521000D01*
X165584000Y-124521000D02*
X164589000Y-124521000D01*
X168628000Y-124561000D02*
X167664000Y-124561000D01*
X165584000Y-124561000D02*
X164620000Y-124561000D01*
X168595000Y-124601000D02*
X167664000Y-124601000D01*
X165584000Y-124601000D02*
X164653000Y-124601000D01*
X168561000Y-124641000D02*
X167664000Y-124641000D01*
X165584000Y-124641000D02*
X164687000Y-124641000D01*
X168525000Y-124681000D02*
X167664000Y-124681000D01*
X165584000Y-124681000D02*
X164723000Y-124681000D01*
X168488000Y-124721000D02*
X167664000Y-124721000D01*
X165584000Y-124721000D02*
X164760000Y-124721000D01*
X168450000Y-124761000D02*
X167664000Y-124761000D01*
X165584000Y-124761000D02*
X164798000Y-124761000D01*
X168409000Y-124801000D02*
X167664000Y-124801000D01*
X165584000Y-124801000D02*
X164839000Y-124801000D01*
X168367000Y-124841000D02*
X167664000Y-124841000D01*
X165584000Y-124841000D02*
X164881000Y-124841000D01*
X168323000Y-124881000D02*
X167664000Y-124881000D01*
X165584000Y-124881000D02*
X164925000Y-124881000D01*
X168277000Y-124921000D02*
X167664000Y-124921000D01*
X165584000Y-124921000D02*
X164971000Y-124921000D01*
X168229000Y-124961000D02*
X165019000Y-124961000D01*
X168178000Y-125001000D02*
X165070000Y-125001000D01*
X168124000Y-125041000D02*
X165124000Y-125041000D01*
X168067000Y-125081000D02*
X165181000Y-125081000D01*
X168007000Y-125121000D02*
X165241000Y-125121000D01*
X167943000Y-125161000D02*
X165305000Y-125161000D01*
X167875000Y-125201000D02*
X165373000Y-125201000D01*
X167802000Y-125241000D02*
X165446000Y-125241000D01*
X167722000Y-125281000D02*
X165526000Y-125281000D01*
X167635000Y-125321000D02*
X165613000Y-125321000D01*
X167539000Y-125361000D02*
X165709000Y-125361000D01*
X167429000Y-125401000D02*
X165819000Y-125401000D01*
X167301000Y-125441000D02*
X165947000Y-125441000D01*
X167142000Y-125481000D02*
X166106000Y-125481000D01*
X166908000Y-125521000D02*
X166340000Y-125521000D01*
X168099000Y-120115225D02*
X168099000Y-120615225D01*
X168349000Y-120365225D02*
X167849000Y-120365225D01*
%TO.C,C2*%
X179038000Y-123170000D02*
G75*
G03*
X179038000Y-123170000I-3270000J0D01*
G01*
X178998000Y-123170000D02*
X172538000Y-123170000D01*
X178998000Y-123210000D02*
X172538000Y-123210000D01*
X178998000Y-123250000D02*
X172538000Y-123250000D01*
X178996000Y-123290000D02*
X172540000Y-123290000D01*
X178995000Y-123330000D02*
X172541000Y-123330000D01*
X178992000Y-123370000D02*
X172544000Y-123370000D01*
X178990000Y-123410000D02*
X176808000Y-123410000D01*
X174728000Y-123410000D02*
X172546000Y-123410000D01*
X178986000Y-123450000D02*
X176808000Y-123450000D01*
X174728000Y-123450000D02*
X172550000Y-123450000D01*
X178983000Y-123490000D02*
X176808000Y-123490000D01*
X174728000Y-123490000D02*
X172553000Y-123490000D01*
X178979000Y-123530000D02*
X176808000Y-123530000D01*
X174728000Y-123530000D02*
X172557000Y-123530000D01*
X178974000Y-123570000D02*
X176808000Y-123570000D01*
X174728000Y-123570000D02*
X172562000Y-123570000D01*
X178969000Y-123610000D02*
X176808000Y-123610000D01*
X174728000Y-123610000D02*
X172567000Y-123610000D01*
X178963000Y-123650000D02*
X176808000Y-123650000D01*
X174728000Y-123650000D02*
X172573000Y-123650000D01*
X178957000Y-123690000D02*
X176808000Y-123690000D01*
X174728000Y-123690000D02*
X172579000Y-123690000D01*
X178950000Y-123730000D02*
X176808000Y-123730000D01*
X174728000Y-123730000D02*
X172586000Y-123730000D01*
X178943000Y-123770000D02*
X176808000Y-123770000D01*
X174728000Y-123770000D02*
X172593000Y-123770000D01*
X178935000Y-123810000D02*
X176808000Y-123810000D01*
X174728000Y-123810000D02*
X172601000Y-123810000D01*
X178927000Y-123850000D02*
X176808000Y-123850000D01*
X174728000Y-123850000D02*
X172609000Y-123850000D01*
X178918000Y-123891000D02*
X176808000Y-123891000D01*
X174728000Y-123891000D02*
X172618000Y-123891000D01*
X178909000Y-123931000D02*
X176808000Y-123931000D01*
X174728000Y-123931000D02*
X172627000Y-123931000D01*
X178899000Y-123971000D02*
X176808000Y-123971000D01*
X174728000Y-123971000D02*
X172637000Y-123971000D01*
X178889000Y-124011000D02*
X176808000Y-124011000D01*
X174728000Y-124011000D02*
X172647000Y-124011000D01*
X178878000Y-124051000D02*
X176808000Y-124051000D01*
X174728000Y-124051000D02*
X172658000Y-124051000D01*
X178866000Y-124091000D02*
X176808000Y-124091000D01*
X174728000Y-124091000D02*
X172670000Y-124091000D01*
X178854000Y-124131000D02*
X176808000Y-124131000D01*
X174728000Y-124131000D02*
X172682000Y-124131000D01*
X178842000Y-124171000D02*
X176808000Y-124171000D01*
X174728000Y-124171000D02*
X172694000Y-124171000D01*
X178829000Y-124211000D02*
X176808000Y-124211000D01*
X174728000Y-124211000D02*
X172707000Y-124211000D01*
X178815000Y-124251000D02*
X176808000Y-124251000D01*
X174728000Y-124251000D02*
X172721000Y-124251000D01*
X178801000Y-124291000D02*
X176808000Y-124291000D01*
X174728000Y-124291000D02*
X172735000Y-124291000D01*
X178786000Y-124331000D02*
X176808000Y-124331000D01*
X174728000Y-124331000D02*
X172750000Y-124331000D01*
X178770000Y-124371000D02*
X176808000Y-124371000D01*
X174728000Y-124371000D02*
X172766000Y-124371000D01*
X178754000Y-124411000D02*
X176808000Y-124411000D01*
X174728000Y-124411000D02*
X172782000Y-124411000D01*
X178738000Y-124451000D02*
X176808000Y-124451000D01*
X174728000Y-124451000D02*
X172798000Y-124451000D01*
X178720000Y-124491000D02*
X176808000Y-124491000D01*
X174728000Y-124491000D02*
X172816000Y-124491000D01*
X178702000Y-124531000D02*
X176808000Y-124531000D01*
X174728000Y-124531000D02*
X172834000Y-124531000D01*
X178684000Y-124571000D02*
X176808000Y-124571000D01*
X174728000Y-124571000D02*
X172852000Y-124571000D01*
X178664000Y-124611000D02*
X176808000Y-124611000D01*
X174728000Y-124611000D02*
X172872000Y-124611000D01*
X178644000Y-124651000D02*
X176808000Y-124651000D01*
X174728000Y-124651000D02*
X172892000Y-124651000D01*
X178624000Y-124691000D02*
X176808000Y-124691000D01*
X174728000Y-124691000D02*
X172912000Y-124691000D01*
X178602000Y-124731000D02*
X176808000Y-124731000D01*
X174728000Y-124731000D02*
X172934000Y-124731000D01*
X178580000Y-124771000D02*
X176808000Y-124771000D01*
X174728000Y-124771000D02*
X172956000Y-124771000D01*
X178558000Y-124811000D02*
X176808000Y-124811000D01*
X174728000Y-124811000D02*
X172978000Y-124811000D01*
X178534000Y-124851000D02*
X176808000Y-124851000D01*
X174728000Y-124851000D02*
X173002000Y-124851000D01*
X178510000Y-124891000D02*
X176808000Y-124891000D01*
X174728000Y-124891000D02*
X173026000Y-124891000D01*
X178484000Y-124931000D02*
X176808000Y-124931000D01*
X174728000Y-124931000D02*
X173052000Y-124931000D01*
X178458000Y-124971000D02*
X176808000Y-124971000D01*
X174728000Y-124971000D02*
X173078000Y-124971000D01*
X178432000Y-125011000D02*
X176808000Y-125011000D01*
X174728000Y-125011000D02*
X173104000Y-125011000D01*
X178404000Y-125051000D02*
X176808000Y-125051000D01*
X174728000Y-125051000D02*
X173132000Y-125051000D01*
X178375000Y-125091000D02*
X176808000Y-125091000D01*
X174728000Y-125091000D02*
X173161000Y-125091000D01*
X178346000Y-125131000D02*
X176808000Y-125131000D01*
X174728000Y-125131000D02*
X173190000Y-125131000D01*
X178316000Y-125171000D02*
X176808000Y-125171000D01*
X174728000Y-125171000D02*
X173220000Y-125171000D01*
X178284000Y-125211000D02*
X176808000Y-125211000D01*
X174728000Y-125211000D02*
X173252000Y-125211000D01*
X178252000Y-125251000D02*
X176808000Y-125251000D01*
X174728000Y-125251000D02*
X173284000Y-125251000D01*
X178218000Y-125291000D02*
X176808000Y-125291000D01*
X174728000Y-125291000D02*
X173318000Y-125291000D01*
X178184000Y-125331000D02*
X176808000Y-125331000D01*
X174728000Y-125331000D02*
X173352000Y-125331000D01*
X178148000Y-125371000D02*
X176808000Y-125371000D01*
X174728000Y-125371000D02*
X173388000Y-125371000D01*
X178111000Y-125411000D02*
X176808000Y-125411000D01*
X174728000Y-125411000D02*
X173425000Y-125411000D01*
X178073000Y-125451000D02*
X176808000Y-125451000D01*
X174728000Y-125451000D02*
X173463000Y-125451000D01*
X178033000Y-125491000D02*
X173503000Y-125491000D01*
X177992000Y-125531000D02*
X173544000Y-125531000D01*
X177950000Y-125571000D02*
X173586000Y-125571000D01*
X177905000Y-125611000D02*
X173631000Y-125611000D01*
X177860000Y-125651000D02*
X173676000Y-125651000D01*
X177812000Y-125691000D02*
X173724000Y-125691000D01*
X177763000Y-125731000D02*
X173773000Y-125731000D01*
X177712000Y-125771000D02*
X173824000Y-125771000D01*
X177658000Y-125811000D02*
X173878000Y-125811000D01*
X177602000Y-125851000D02*
X173934000Y-125851000D01*
X177544000Y-125891000D02*
X173992000Y-125891000D01*
X177482000Y-125931000D02*
X174054000Y-125931000D01*
X177418000Y-125971000D02*
X174118000Y-125971000D01*
X177349000Y-126011000D02*
X174187000Y-126011000D01*
X177277000Y-126051000D02*
X174259000Y-126051000D01*
X177200000Y-126091000D02*
X174336000Y-126091000D01*
X177118000Y-126131000D02*
X174418000Y-126131000D01*
X177030000Y-126171000D02*
X174506000Y-126171000D01*
X176933000Y-126211000D02*
X174603000Y-126211000D01*
X176827000Y-126251000D02*
X174709000Y-126251000D01*
X176708000Y-126291000D02*
X174828000Y-126291000D01*
X176570000Y-126331000D02*
X174966000Y-126331000D01*
X176401000Y-126371000D02*
X175135000Y-126371000D01*
X176170000Y-126411000D02*
X175366000Y-126411000D01*
X177607000Y-119669759D02*
X177607000Y-120299759D01*
X177922000Y-119984759D02*
X177292000Y-119984759D01*
%TO.C,D1*%
X146338000Y-75220000D02*
X146494000Y-75220000D01*
X148654000Y-75220000D02*
X148810000Y-75220000D01*
X146495392Y-71987665D02*
G75*
G03*
X146338484Y-75220000I1078608J-1672335D01*
G01*
X148652608Y-71987665D02*
G75*
G02*
X148809516Y-75220000I-1078608J-1672335D01*
G01*
X146494163Y-72618870D02*
G75*
G03*
X146494000Y-74700961I1079837J-1041130D01*
G01*
X148653837Y-72618870D02*
G75*
G02*
X148654000Y-74700961I-1079837J-1041130D01*
G01*
%TO.C,D2*%
X161354000Y-75220000D02*
X161510000Y-75220000D01*
X159038000Y-75220000D02*
X159194000Y-75220000D01*
X161353837Y-72618870D02*
G75*
G02*
X161354000Y-74700961I-1079837J-1041130D01*
G01*
X159194163Y-72618870D02*
G75*
G03*
X159194000Y-74700961I1079837J-1041130D01*
G01*
X161352608Y-71987665D02*
G75*
G02*
X161509516Y-75220000I-1078608J-1672335D01*
G01*
X159195392Y-71987665D02*
G75*
G03*
X159038484Y-75220000I1078608J-1672335D01*
G01*
D12*
%TO.C,Q1*%
X167716000Y-113220000D02*
X167416000Y-113070000D01*
X167716000Y-113220000D02*
X167716000Y-113520000D01*
X167716000Y-117620000D02*
X167716000Y-117920000D01*
X167716000Y-117920000D02*
X167416000Y-118070000D01*
D10*
X164566000Y-113620000D02*
G75*
G03*
X164516000Y-117470000I1900000J-1950000D01*
G01*
D13*
%TO.C,R1*%
X160298000Y-103410000D02*
X160628000Y-103410000D01*
X160628000Y-103410000D02*
X160628000Y-109950000D01*
X160628000Y-109950000D02*
X160298000Y-109950000D01*
X158218000Y-103410000D02*
X157888000Y-103410000D01*
X157888000Y-103410000D02*
X157888000Y-109950000D01*
X157888000Y-109950000D02*
X158218000Y-109950000D01*
%TO.C,R2*%
X164438000Y-103410000D02*
X164108000Y-103410000D01*
X164438000Y-109950000D02*
X164438000Y-103410000D01*
X164108000Y-109950000D02*
X164438000Y-109950000D01*
X161698000Y-103410000D02*
X162028000Y-103410000D01*
X161698000Y-109950000D02*
X161698000Y-103410000D01*
X162028000Y-109950000D02*
X161698000Y-109950000D01*
%TO.C,R3*%
X173458000Y-109950000D02*
X173128000Y-109950000D01*
X173128000Y-109950000D02*
X173128000Y-103410000D01*
X173128000Y-103410000D02*
X173458000Y-103410000D01*
X175538000Y-109950000D02*
X175868000Y-109950000D01*
X175868000Y-109950000D02*
X175868000Y-103410000D01*
X175868000Y-103410000D02*
X175538000Y-103410000D01*
%TO.C,R4*%
X176938000Y-109950000D02*
X177268000Y-109950000D01*
X176938000Y-103410000D02*
X176938000Y-109950000D01*
X177268000Y-103410000D02*
X176938000Y-103410000D01*
X179678000Y-109950000D02*
X179348000Y-109950000D01*
X179678000Y-103410000D02*
X179678000Y-109950000D01*
X179348000Y-103410000D02*
X179678000Y-103410000D01*
%TO.C,R5*%
X171736000Y-114784000D02*
X171736000Y-114454000D01*
X171736000Y-114454000D02*
X178276000Y-114454000D01*
X178276000Y-114454000D02*
X178276000Y-114784000D01*
X171736000Y-116864000D02*
X171736000Y-117194000D01*
X171736000Y-117194000D02*
X178276000Y-117194000D01*
X178276000Y-117194000D02*
X178276000Y-116864000D01*
%TO.C,R6*%
X168248000Y-103410000D02*
X167918000Y-103410000D01*
X168248000Y-109950000D02*
X168248000Y-103410000D01*
X167918000Y-109950000D02*
X168248000Y-109950000D01*
X165508000Y-103410000D02*
X165838000Y-103410000D01*
X165508000Y-109950000D02*
X165508000Y-103410000D01*
X165838000Y-109950000D02*
X165508000Y-109950000D01*
%TO.C,R7*%
X169648000Y-109950000D02*
X169318000Y-109950000D01*
X169318000Y-109950000D02*
X169318000Y-103410000D01*
X169318000Y-103410000D02*
X169648000Y-103410000D01*
X171728000Y-109950000D02*
X172058000Y-109950000D01*
X172058000Y-109950000D02*
X172058000Y-103410000D01*
X172058000Y-103410000D02*
X171728000Y-103410000D01*
D12*
%TO.C,S1*%
X156024000Y-100920000D02*
X156024000Y-101420000D01*
X156024000Y-100920000D02*
X155524000Y-100920000D01*
X156024000Y-112820000D02*
X156024000Y-112320000D01*
X156024000Y-112820000D02*
X155524000Y-112820000D01*
X151824000Y-112820000D02*
X151824000Y-112320000D01*
X151824000Y-112820000D02*
X152324000Y-112820000D01*
X151824000Y-100920000D02*
X152324000Y-100920000D01*
X151824000Y-100920000D02*
X151824000Y-101420000D01*
%TO.C,U1*%
D10*
X158496095Y-113498380D02*
X158496095Y-114307904D01*
X158543714Y-114403142D01*
X158591333Y-114450761D01*
X158686571Y-114498380D01*
X158877047Y-114498380D01*
X158972285Y-114450761D01*
X159019904Y-114403142D01*
X159067523Y-114307904D01*
X159067523Y-113498380D01*
X160067523Y-114498380D02*
X159496095Y-114498380D01*
X159781809Y-114498380D02*
X159781809Y-113498380D01*
X159686571Y-113641238D01*
X159591333Y-113736476D01*
X159496095Y-113784095D01*
%TO.C,BAT1*%
X131119714Y-102544571D02*
X131262571Y-102592190D01*
X131310190Y-102639809D01*
X131357809Y-102735047D01*
X131357809Y-102877904D01*
X131310190Y-102973142D01*
X131262571Y-103020761D01*
X131167333Y-103068380D01*
X130786380Y-103068380D01*
X130786380Y-102068380D01*
X131119714Y-102068380D01*
X131214952Y-102116000D01*
X131262571Y-102163619D01*
X131310190Y-102258857D01*
X131310190Y-102354095D01*
X131262571Y-102449333D01*
X131214952Y-102496952D01*
X131119714Y-102544571D01*
X130786380Y-102544571D01*
X131738761Y-102782666D02*
X132214952Y-102782666D01*
X131643523Y-103068380D02*
X131976857Y-102068380D01*
X132310190Y-103068380D01*
X132500666Y-102068380D02*
X133072095Y-102068380D01*
X132786380Y-103068380D02*
X132786380Y-102068380D01*
X133929238Y-103068380D02*
X133357809Y-103068380D01*
X133643523Y-103068380D02*
X133643523Y-102068380D01*
X133548285Y-102211238D01*
X133453047Y-102306476D01*
X133357809Y-102354095D01*
%TO.C,C1*%
X163917333Y-126087142D02*
X163869714Y-126134761D01*
X163726857Y-126182380D01*
X163631619Y-126182380D01*
X163488761Y-126134761D01*
X163393523Y-126039523D01*
X163345904Y-125944285D01*
X163298285Y-125753809D01*
X163298285Y-125610952D01*
X163345904Y-125420476D01*
X163393523Y-125325238D01*
X163488761Y-125230000D01*
X163631619Y-125182380D01*
X163726857Y-125182380D01*
X163869714Y-125230000D01*
X163917333Y-125277619D01*
X164869714Y-126182380D02*
X164298285Y-126182380D01*
X164584000Y-126182380D02*
X164584000Y-125182380D01*
X164488761Y-125325238D01*
X164393523Y-125420476D01*
X164298285Y-125468095D01*
%TO.C,C2*%
X171537333Y-126087142D02*
X171489714Y-126134761D01*
X171346857Y-126182380D01*
X171251619Y-126182380D01*
X171108761Y-126134761D01*
X171013523Y-126039523D01*
X170965904Y-125944285D01*
X170918285Y-125753809D01*
X170918285Y-125610952D01*
X170965904Y-125420476D01*
X171013523Y-125325238D01*
X171108761Y-125230000D01*
X171251619Y-125182380D01*
X171346857Y-125182380D01*
X171489714Y-125230000D01*
X171537333Y-125277619D01*
X171918285Y-125277619D02*
X171965904Y-125230000D01*
X172061142Y-125182380D01*
X172299238Y-125182380D01*
X172394476Y-125230000D01*
X172442095Y-125277619D01*
X172489714Y-125372857D01*
X172489714Y-125468095D01*
X172442095Y-125610952D01*
X171870666Y-126182380D01*
X172489714Y-126182380D01*
%TO.C,D1*%
X145066380Y-74398095D02*
X144066380Y-74398095D01*
X144066380Y-74160000D01*
X144114000Y-74017142D01*
X144209238Y-73921904D01*
X144304476Y-73874285D01*
X144494952Y-73826666D01*
X144637809Y-73826666D01*
X144828285Y-73874285D01*
X144923523Y-73921904D01*
X145018761Y-74017142D01*
X145066380Y-74160000D01*
X145066380Y-74398095D01*
X145066380Y-72874285D02*
X145066380Y-73445714D01*
X145066380Y-73160000D02*
X144066380Y-73160000D01*
X144209238Y-73255238D01*
X144304476Y-73350476D01*
X144352095Y-73445714D01*
%TO.C,D2*%
X157766380Y-74398095D02*
X156766380Y-74398095D01*
X156766380Y-74160000D01*
X156814000Y-74017142D01*
X156909238Y-73921904D01*
X157004476Y-73874285D01*
X157194952Y-73826666D01*
X157337809Y-73826666D01*
X157528285Y-73874285D01*
X157623523Y-73921904D01*
X157718761Y-74017142D01*
X157766380Y-74160000D01*
X157766380Y-74398095D01*
X156861619Y-73445714D02*
X156814000Y-73398095D01*
X156766380Y-73302857D01*
X156766380Y-73064761D01*
X156814000Y-72969523D01*
X156861619Y-72921904D01*
X156956857Y-72874285D01*
X157052095Y-72874285D01*
X157194952Y-72921904D01*
X157766380Y-73493333D01*
X157766380Y-72874285D01*
%TO.C,Q1*%
X163734761Y-113323619D02*
X163639523Y-113276000D01*
X163544285Y-113180761D01*
X163401428Y-113037904D01*
X163306190Y-112990285D01*
X163210952Y-112990285D01*
X163258571Y-113228380D02*
X163163333Y-113180761D01*
X163068095Y-113085523D01*
X163020476Y-112895047D01*
X163020476Y-112561714D01*
X163068095Y-112371238D01*
X163163333Y-112276000D01*
X163258571Y-112228380D01*
X163449047Y-112228380D01*
X163544285Y-112276000D01*
X163639523Y-112371238D01*
X163687142Y-112561714D01*
X163687142Y-112895047D01*
X163639523Y-113085523D01*
X163544285Y-113180761D01*
X163449047Y-113228380D01*
X163258571Y-113228380D01*
X164639523Y-113228380D02*
X164068095Y-113228380D01*
X164353809Y-113228380D02*
X164353809Y-112228380D01*
X164258571Y-112371238D01*
X164163333Y-112466476D01*
X164068095Y-112514095D01*
%TO.C,R1*%
X158329333Y-101290380D02*
X157996000Y-100814190D01*
X157757904Y-101290380D02*
X157757904Y-100290380D01*
X158138857Y-100290380D01*
X158234095Y-100338000D01*
X158281714Y-100385619D01*
X158329333Y-100480857D01*
X158329333Y-100623714D01*
X158281714Y-100718952D01*
X158234095Y-100766571D01*
X158138857Y-100814190D01*
X157757904Y-100814190D01*
X159281714Y-101290380D02*
X158710285Y-101290380D01*
X158996000Y-101290380D02*
X158996000Y-100290380D01*
X158900761Y-100433238D01*
X158805523Y-100528476D01*
X158710285Y-100576095D01*
%TO.C,R2*%
X162139333Y-101290380D02*
X161806000Y-100814190D01*
X161567904Y-101290380D02*
X161567904Y-100290380D01*
X161948857Y-100290380D01*
X162044095Y-100338000D01*
X162091714Y-100385619D01*
X162139333Y-100480857D01*
X162139333Y-100623714D01*
X162091714Y-100718952D01*
X162044095Y-100766571D01*
X161948857Y-100814190D01*
X161567904Y-100814190D01*
X162520285Y-100385619D02*
X162567904Y-100338000D01*
X162663142Y-100290380D01*
X162901238Y-100290380D01*
X162996476Y-100338000D01*
X163044095Y-100385619D01*
X163091714Y-100480857D01*
X163091714Y-100576095D01*
X163044095Y-100718952D01*
X162472666Y-101290380D01*
X163091714Y-101290380D01*
%TO.C,R3*%
X173569333Y-101290380D02*
X173236000Y-100814190D01*
X172997904Y-101290380D02*
X172997904Y-100290380D01*
X173378857Y-100290380D01*
X173474095Y-100338000D01*
X173521714Y-100385619D01*
X173569333Y-100480857D01*
X173569333Y-100623714D01*
X173521714Y-100718952D01*
X173474095Y-100766571D01*
X173378857Y-100814190D01*
X172997904Y-100814190D01*
X173902666Y-100290380D02*
X174521714Y-100290380D01*
X174188380Y-100671333D01*
X174331238Y-100671333D01*
X174426476Y-100718952D01*
X174474095Y-100766571D01*
X174521714Y-100861809D01*
X174521714Y-101099904D01*
X174474095Y-101195142D01*
X174426476Y-101242761D01*
X174331238Y-101290380D01*
X174045523Y-101290380D01*
X173950285Y-101242761D01*
X173902666Y-101195142D01*
%TO.C,R4*%
X177379333Y-101290380D02*
X177046000Y-100814190D01*
X176807904Y-101290380D02*
X176807904Y-100290380D01*
X177188857Y-100290380D01*
X177284095Y-100338000D01*
X177331714Y-100385619D01*
X177379333Y-100480857D01*
X177379333Y-100623714D01*
X177331714Y-100718952D01*
X177284095Y-100766571D01*
X177188857Y-100814190D01*
X176807904Y-100814190D01*
X178236476Y-100623714D02*
X178236476Y-101290380D01*
X177998380Y-100242761D02*
X177760285Y-100957047D01*
X178379333Y-100957047D01*
%TO.C,R5*%
X172299333Y-113736380D02*
X171966000Y-113260190D01*
X171727904Y-113736380D02*
X171727904Y-112736380D01*
X172108857Y-112736380D01*
X172204095Y-112784000D01*
X172251714Y-112831619D01*
X172299333Y-112926857D01*
X172299333Y-113069714D01*
X172251714Y-113164952D01*
X172204095Y-113212571D01*
X172108857Y-113260190D01*
X171727904Y-113260190D01*
X173204095Y-112736380D02*
X172727904Y-112736380D01*
X172680285Y-113212571D01*
X172727904Y-113164952D01*
X172823142Y-113117333D01*
X173061238Y-113117333D01*
X173156476Y-113164952D01*
X173204095Y-113212571D01*
X173251714Y-113307809D01*
X173251714Y-113545904D01*
X173204095Y-113641142D01*
X173156476Y-113688761D01*
X173061238Y-113736380D01*
X172823142Y-113736380D01*
X172727904Y-113688761D01*
X172680285Y-113641142D01*
%TO.C,R6*%
X165949333Y-101290380D02*
X165616000Y-100814190D01*
X165377904Y-101290380D02*
X165377904Y-100290380D01*
X165758857Y-100290380D01*
X165854095Y-100338000D01*
X165901714Y-100385619D01*
X165949333Y-100480857D01*
X165949333Y-100623714D01*
X165901714Y-100718952D01*
X165854095Y-100766571D01*
X165758857Y-100814190D01*
X165377904Y-100814190D01*
X166806476Y-100290380D02*
X166616000Y-100290380D01*
X166520761Y-100338000D01*
X166473142Y-100385619D01*
X166377904Y-100528476D01*
X166330285Y-100718952D01*
X166330285Y-101099904D01*
X166377904Y-101195142D01*
X166425523Y-101242761D01*
X166520761Y-101290380D01*
X166711238Y-101290380D01*
X166806476Y-101242761D01*
X166854095Y-101195142D01*
X166901714Y-101099904D01*
X166901714Y-100861809D01*
X166854095Y-100766571D01*
X166806476Y-100718952D01*
X166711238Y-100671333D01*
X166520761Y-100671333D01*
X166425523Y-100718952D01*
X166377904Y-100766571D01*
X166330285Y-100861809D01*
%TO.C,R7*%
X169759333Y-101290380D02*
X169426000Y-100814190D01*
X169187904Y-101290380D02*
X169187904Y-100290380D01*
X169568857Y-100290380D01*
X169664095Y-100338000D01*
X169711714Y-100385619D01*
X169759333Y-100480857D01*
X169759333Y-100623714D01*
X169711714Y-100718952D01*
X169664095Y-100766571D01*
X169568857Y-100814190D01*
X169187904Y-100814190D01*
X170092666Y-100290380D02*
X170759333Y-100290380D01*
X170330761Y-101290380D01*
%TO.C,S1*%
X151638095Y-100226761D02*
X151780952Y-100274380D01*
X152019047Y-100274380D01*
X152114285Y-100226761D01*
X152161904Y-100179142D01*
X152209523Y-100083904D01*
X152209523Y-99988666D01*
X152161904Y-99893428D01*
X152114285Y-99845809D01*
X152019047Y-99798190D01*
X151828571Y-99750571D01*
X151733333Y-99702952D01*
X151685714Y-99655333D01*
X151638095Y-99560095D01*
X151638095Y-99464857D01*
X151685714Y-99369619D01*
X151733333Y-99322000D01*
X151828571Y-99274380D01*
X152066666Y-99274380D01*
X152209523Y-99322000D01*
X153161904Y-100274380D02*
X152590476Y-100274380D01*
X152876190Y-100274380D02*
X152876190Y-99274380D01*
X152780952Y-99417238D01*
X152685714Y-99512476D01*
X152590476Y-99560095D01*
%TD*%
D14*
G36*
X179197000Y-98933000D02*
G01*
X128651000Y-98933000D01*
X128651000Y-48387000D01*
X179197000Y-48387000D01*
X179197000Y-98933000D01*
G37*
X179197000Y-98933000D02*
X128651000Y-98933000D01*
X128651000Y-48387000D01*
X179197000Y-48387000D01*
X179197000Y-98933000D01*
M02*
